<?xml version="1.0" standalone="no"?>
<!DOCTYPE svg PUBLIC "-//W3C//DTD SVG 1.1//EN" "http://www.w3.org/Graphics/SVG/1.1/DTD/svg11.dtd" >
<svg xmlns="http://www.w3.org/2000/svg" xmlns:xlink="http://www.w3.org/1999/xlink" version="1.1">
<metadata>
Created by FontForge 20170731 at Mon Apr 18 12:26:38 2022
 By Aleksey,,,
Copyright (c) 2012-2015, Omnibus-Type (www.omnibus-type.com omnibus.type@gmail.com)
</metadata>
<defs>
<font id="ArchivoBlack-Regular" horiz-adv-x="1366" >
  <font-face 
    font-family="Archivo Black"
    font-weight="400"
    font-stretch="normal"
    units-per-em="2048"
    panose-1="2 11 10 3 2 2 2 2 11 4"
    ascent="1638"
    descent="-410"
    x-height="1081"
    cap-height="1409"
    bbox="-475 -547 3490 1960"
    underline-thickness="102"
    underline-position="-307"
    unicode-range="U+000D-FB02"
  />
<missing-glyph horiz-adv-x="1536" 
d="M1024 1434v-1434h-1024v1434h1024zM164 1331l348 -522l348 522h-696zM451 717l-349 522v-1044zM922 1239l-349 -522l349 -522v1044zM512 625l-348 -523h696z" />
    <glyph glyph-name=".notdef" horiz-adv-x="1536" 
d="M1024 1434v-1434h-1024v1434h1024zM164 1331l348 -522l348 522h-696zM451 717l-349 522v-1044zM922 1239l-349 -522l349 -522v1044zM512 625l-348 -523h696z" />
    <glyph glyph-name=".null" horiz-adv-x="0" 
 />
    <glyph glyph-name="nonmarkingreturn" horiz-adv-x="682" 
 />
    <glyph glyph-name="CR" unicode="&#xd;" horiz-adv-x="681" 
 />
    <glyph glyph-name="space" unicode=" " horiz-adv-x="681" 
 />
    <glyph glyph-name="exclam" unicode="!" horiz-adv-x="681" 
d="M469 504h-260l-113 905h490zM543 0h-406v379h406v-379z" />
    <glyph glyph-name="quotedbl" unicode="&#x22;" horiz-adv-x="1024" 
d="M455 1108l-97 -293h-141l-96 293v301h334v-301zM903 1108l-98 -293h-139l-97 293v301h334v-301z" />
    <glyph glyph-name="numbersign" unicode="#" horiz-adv-x="1351" 
d="M1118 1028h191v-227h-232l-53 -252h217v-223h-274l-76 -349h-240l76 349h-235l-74 -349h-246l74 349h-205v223h258l57 252h-221v227h266l91 406h249l-92 -406h228l90 406h245zM598 799l-55 -252h233l60 252h-238z" />
    <glyph glyph-name="dollar" unicode="$" 
d="M797 1268q89 -7 164.5 -30t137 -63t97 -104.5t35.5 -146.5h-379q-1 40 -27 64.5t-55.5 32t-62.5 7.5q-148 0 -148 -70q0 -31 38.5 -49.5t100 -28t136 -19.5t149 -31t136 -54.5t100 -97.5t38.5 -154q0 -96 -35.5 -168t-100 -115.5t-144.5 -67t-180 -30.5l16 -280h-231
l14 282q-92 10 -171 36t-144 70t-102.5 112.5t-37.5 154.5h379v-8q1 -37 20 -63t48.5 -38.5t56.5 -18t53 -5.5q170 0 170 80q0 32 -38.5 52.5t-100 31.5t-136 22.5t-149 33t-136 55t-100 96t-38.5 149.5q0 89 32.5 156.5t92.5 109t134 64.5t167 31l-14 282h231z" />
    <glyph glyph-name="percent" unicode="%" horiz-adv-x="2048" 
d="M471 1434q192 0 283.5 -97.5t91.5 -271.5q0 -171 -91.5 -268t-283.5 -97t-284.5 97t-92.5 268q0 173 92.5 271t284.5 98zM700 0h-227l858 1407h223zM471 1278q-63 0 -93 -48.5t-30 -129.5v-66q0 -81 30 -129.5t93 -48.5q121 0 121 178v66q0 178 -121 178zM1561 709
q192 0 283 -97.5t91 -271.5q0 -171 -91 -268t-283 -97t-284.5 97t-92.5 268q0 173 92.5 271t284.5 98zM1561 553q-63 0 -93 -48.5t-30 -129.5v-66q0 -81 30 -129.5t93 -48.5q120 0 120 178v66q0 178 -120 178z" />
    <glyph glyph-name="ampersand" unicode="&#x26;" horiz-adv-x="1820" 
d="M854 1434q313 0 496.5 -110.5t183.5 -274.5v-52h-363q0 64 -74 106t-216 42q-131 0 -200 -50.5t-69 -121.5q0 -64 42 -96.5t104 -32.5h213v-252h-258q-63 0 -103.5 -38t-40.5 -110q0 -83 71 -131.5t224 -48.5q307 0 307 182v398h648v-252h-281v-137q0 -229 -162.5 -354.5
t-509.5 -125.5q-357 0 -534.5 114.5t-177.5 303.5q0 124 64.5 212.5t180.5 125.5v8q-88 33 -146 113t-58 178q0 172 172.5 288t486.5 116z" />
    <glyph glyph-name="quotesingle" unicode="'" horiz-adv-x="569" 
d="M451 1108l-99 -293h-139l-96 293v301h334v-301z" />
    <glyph glyph-name="parenleft" unicode="(" horiz-adv-x="796" 
d="M727 1509q-121 -188 -196.5 -444.5t-75.5 -474.5q0 -219 75.5 -474.5t196.5 -443.5h-246q-177 189 -272.5 428t-95.5 490q0 252 95.5 491t272.5 428h246z" />
    <glyph glyph-name="parenright" unicode=")" horiz-adv-x="796" 
d="M315 1509q177 -189 273 -428t96 -491q0 -251 -96 -490t-273 -428h-245q121 188 196.5 443.5t75.5 474.5q0 218 -75.5 474.5t-196.5 444.5h245z" />
    <glyph glyph-name="asterisk" unicode="*" horiz-adv-x="1138" 
d="M639 1161l207 144l96 -164l-229 -107l229 -104l-96 -166l-207 145l25 -250h-191l25 250l-207 -145l-96 166l229 104l-229 107l96 164l207 -146l-25 250h191z" />
    <glyph glyph-name="plus" unicode="+" horiz-adv-x="1351" 
d="M811 676h406v-270h-406v-406h-270v406h-406v270h406v405h270v-405z" />
    <glyph glyph-name="comma" unicode="," horiz-adv-x="681" 
d="M559 23l-215 -398h-221l168 375h-166v408h434v-385z" />
    <glyph glyph-name="hyphen" unicode="-" horiz-adv-x="681" 
d="M602 401h-522v324h522v-324z" />
    <glyph glyph-name="period" unicode="." horiz-adv-x="681" 
d="M559 0h-434v408h434v-408z" />
    <glyph glyph-name="slash" unicode="/" horiz-adv-x="569" 
d="M246 -98h-250l328 1605h247z" />
    <glyph glyph-name="zero" unicode="0" 
d="M684 1434q137 0 241 -34.5t171.5 -96t109.5 -154.5t59 -200.5t17 -243.5t-17 -243.5t-59 -201t-109.5 -155t-171.5 -96t-241 -34.5q-115 0 -206.5 23.5t-157 69.5t-111.5 108t-73.5 146t-39.5 177t-12 206q0 136 17.5 243.5t59.5 200.5t109.5 154.5t172 96t241.5 34.5z
M684 1157q-107 0 -152 -81.5t-45 -268.5v-203q0 -187 45.5 -269.5t151.5 -82.5t149.5 81.5t43.5 270.5v203q0 188 -43.5 269t-149.5 81z" />
    <glyph glyph-name="one" unicode="1" 
d="M956 315h322v-315h-1063v315h334v637h-334v238q136 9 306 73.5t298 147.5h137v-1096z" />
    <glyph glyph-name="two" unicode="2" 
d="M709 1434q249 0 395.5 -115.5t146.5 -308.5q0 -56 -14.5 -108t-37.5 -94.5t-62 -87t-76 -78t-93 -75.5t-99.5 -71.5t-109 -74t-108.5 -75.5h617v-346h-1168v98q0 108 50.5 194t146.5 171q82 73 178 150.5t155 123.5t113 94t78.5 87t24.5 77q0 64 -44 107t-132 43
q-93 0 -146 -54t-53 -139v-41h-365q-2 16 -2 45q0 222 154.5 350t450.5 128z" />
    <glyph glyph-name="three" unicode="3" 
d="M694 1434q252 0 398.5 -110t146.5 -273q0 -105 -57 -191.5t-148 -120.5v-8q117 -37 181.5 -128t64.5 -220q-3 -69 -26.5 -129t-70.5 -111.5t-115 -88.5t-165.5 -58t-216.5 -21q-150 0 -267 32t-188.5 88t-108 128.5t-36.5 157.5v43h360q0 -168 213 -168t213 188
q0 72 -40 110t-103 38h-149v252h116q63 0 103.5 37.5t40.5 109.5q0 67 -48.5 114.5t-132.5 47.5q-88 0 -137 -44.5t-49 -111.5h-342v52q0 165 151 275t412 110z" />
    <glyph glyph-name="four" unicode="4" 
d="M842 1434q-22 -157 -187.5 -418.5t-326.5 -425.5h405v293q62 89 128.5 212t86.5 203h174v-708h197v-301h-197v-289h-389v289h-686v305q110 162 219 388t174 452h402z" />
    <glyph glyph-name="five" unicode="5" 
d="M1176 1061h-670l-17 -213q5 4 13.5 10t38 22t62 28t84 22t104.5 10q225 0 357 -128t132 -351q0 -206 -159.5 -346t-418.5 -140q-301 0 -461.5 129.5t-160.5 350.5h360q0 -84 57.5 -140.5t161.5 -56.5t161 58t57 151q0 94 -57 152.5t-158 58.5q-33 0 -61 -6t-45.5 -14
t-34.5 -21.5t-24.5 -22t-18.5 -23t-13 -16.5l-324 46l60 788h975v-348z" />
    <glyph glyph-name="six" unicode="6" 
d="M694 1434q257 0 410 -124t153 -352h-364v15q0 80 -49.5 132t-143.5 52q-97 0 -150.5 -67t-53.5 -179v-118q59 53 141 79.5t156 26.5q142 0 253.5 -48.5t178.5 -148t67 -235.5q0 -234 -160.5 -363t-437.5 -129q-309 0 -459.5 169.5t-150.5 525.5q0 404 148.5 584
t461.5 180zM696 653q-97 0 -148.5 -51.5t-51.5 -148.5t51 -149t147 -52q97 0 150 50.5t53 146.5q0 97 -52.5 150.5t-148.5 53.5z" />
    <glyph glyph-name="seven" unicode="7" 
d="M1280 1223q-110 -136 -190.5 -253t-156 -259t-115.5 -291t-40 -299v-121h-454q0 278 119.5 548t324.5 509h-676v352h1188v-186z" />
    <glyph glyph-name="eight" unicode="8" 
d="M680 1434q114 0 213.5 -27.5t174.5 -79.5t118 -131.5t43 -177.5q0 -75 -24.5 -132.5t-57.5 -90.5t-90 -74v-8q74 -42 119.5 -81.5t75.5 -101.5t30 -143q0 -198 -161.5 -305t-440.5 -107q-278 0 -437 107t-159 305q0 118 55.5 190.5t167.5 135.5v8q-57 41 -90 74
t-57.5 90.5t-24.5 132.5q0 98 42.5 177.5t116.5 131.5t173 79.5t213 27.5zM680 1157q-88 0 -138 -38t-50 -118q0 -78 52.5 -115.5t135.5 -37.5q84 0 139 37.5t55 115.5q0 79 -53 117.5t-141 38.5zM680 588q-81 0 -134.5 -44t-53.5 -124q0 -81 51 -124.5t137 -43.5t140 43.5
t54 124.5q0 79 -56.5 123.5t-137.5 44.5z" />
    <glyph glyph-name="nine" unicode="9" 
d="M672 1434q309 0 459.5 -169.5t150.5 -525.5q0 -404 -148.5 -584t-461.5 -180q-257 0 -410 124t-153 352h364v-15q0 -80 49.5 -132t143.5 -52q97 0 150.5 67t53.5 179v118q-59 -53 -141 -79.5t-156 -26.5q-142 0 -253.5 48.5t-178.5 148t-67 235.5q0 234 160.5 363
t437.5 129zM670 1157q-97 0 -149 -52t-52 -149t51 -148.5t148 -51.5t149.5 50t52.5 146q0 97 -52 151t-148 54z" />
    <glyph glyph-name="colon" unicode=":" horiz-adv-x="681" 
d="M559 672h-434v409h434v-409zM559 0h-434v408h434v-408z" />
    <glyph glyph-name="semicolon" unicode=";" horiz-adv-x="681" 
d="M559 672h-434v409h434v-409zM559 23l-215 -398h-221l168 375h-166v408h434v-385z" />
    <glyph glyph-name="less" unicode="&#x3c;" horiz-adv-x="1351" 
d="M1212 803l-735 -271l735 -268v-291l-1075 414v293l1075 416v-293z" />
    <glyph glyph-name="equal" unicode="=" horiz-adv-x="1351" 
d="M1217 637h-1082v270h1082v-270zM1217 174h-1082v270h1082v-270z" />
    <glyph glyph-name="greater" unicode="&#x3e;" horiz-adv-x="1351" 
d="M1214 680v-293l-1075 -414v291l735 268l-735 271v293z" />
    <glyph glyph-name="question" unicode="?" horiz-adv-x="1251" 
d="M635 1434q236 0 380 -114t144 -304q0 -66 -26 -124t-65 -97.5t-84 -76.5t-84 -63t-65 -54.5t-26 -53.5v-43h-350v102q0 41 27.5 82.5t66.5 77t78 71.5t66.5 80.5t27.5 90.5q0 60 -36.5 101.5t-98.5 41.5q-133 0 -133 -172q0 -37 2 -55h-377q0 4 -3 32.5t-3 44.5
q0 130 72.5 229.5t199 151.5t287.5 52zM840 0h-406v379h406v-379z" />
    <glyph glyph-name="at" unicode="@" horiz-adv-x="1515" 
d="M780 1434q121 0 224.5 -27t191 -87t149 -149t96 -218.5t34.5 -290.5q0 -124 -21.5 -222t-56.5 -160t-82.5 -102.5t-96 -57t-100.5 -16.5q-157 0 -223 109q-117 -109 -274 -109q-291 0 -291 234q0 73 23.5 125.5t64.5 85.5t109.5 51.5t146 25.5t186.5 7v41q0 48 -27.5 74
t-70.5 26q-42 0 -72.5 -18.5t-30.5 -61.5h-305q-2 8 -2 21q0 117 108 186.5t306 69.5q85 0 155 -14t128.5 -44t91.5 -84t33 -127v-325q0 -62 59 -62q11 0 22 6t26 28t26.5 57.5t19.5 102.5t8 155q0 168 -40.5 293t-115.5 201.5t-175 113.5t-226 37q-294 0 -446 -191
t-152 -575q0 -362 132.5 -542.5t404.5 -180.5q66 0 157.5 19t139.5 46v-135q-54 -23 -144 -39t-153 -16q-324 0 -500 209t-176 641q0 190 37 341t102 252.5t158.5 169t203 97t238.5 29.5zM860 483q-112 0 -166.5 -29t-54.5 -77q0 -80 86 -80q56 0 95.5 33.5t39.5 83.5v69z
" />
    <glyph glyph-name="A" unicode="A" horiz-adv-x="1593" 
d="M1575 0h-479l-60 199h-493l-60 -199h-463l515 1409h526zM786 1016l-149 -502h305l-147 502h-9z" />
    <glyph glyph-name="B" unicode="B" horiz-adv-x="1593" 
d="M1090 1409q162 0 275.5 -98t113.5 -248q0 -259 -236 -328v-8q268 -61 268 -352q0 -166 -117.5 -270.5t-291.5 -104.5h-950v1409h938zM604 1100v-240h311q44 0 74.5 32.5t30.5 78.5v20q0 44 -31 76.5t-74 32.5h-311zM604 569v-241h344q44 0 74.5 31.5t30.5 78.5v21
q0 46 -30.5 78t-74.5 32h-344z" />
    <glyph glyph-name="C" unicode="C" horiz-adv-x="1593" 
d="M823 1434q313 0 495.5 -157.5t182.5 -447.5h-432q0 124 -64.5 195.5t-183.5 71.5q-266 0 -266 -326v-131q0 -152 64.5 -239t197.5 -87q131 0 198.5 67.5t67.5 190.5h418q0 -289 -177 -442.5t-501 -153.5q-361 0 -546 184.5t-185 545.5t185 545t546 184z" />
    <glyph glyph-name="D" unicode="D" horiz-adv-x="1593" 
d="M762 1409q739 0 739 -704q0 -705 -739 -705h-610v1409h610zM604 1071v-733h150q284 0 284 305v123q0 305 -284 305h-150z" />
    <glyph glyph-name="E" unicode="E" horiz-adv-x="1478" 
d="M152 0v1409h1218v-338h-766v-194h656v-324h-656v-215h780v-338h-1232z" />
    <glyph glyph-name="F" unicode="F" 
d="M152 0v1409h1138v-338h-686v-242h590v-323h-590v-506h-452z" />
    <glyph glyph-name="G" unicode="G" horiz-adv-x="1705" 
d="M860 1434q150 0 279 -34.5t227.5 -100t154.5 -168.5t56 -232h-432q0 88 -77.5 142.5t-188.5 54.5q-159 0 -241.5 -85t-82.5 -241v-131q0 -156 82.5 -241t241.5 -85q110 0 188 52t78 135h-320v286h752v-786h-234l-45 139q-191 -164 -503 -164q-351 0 -527 184t-176 546
q0 357 199.5 543t568.5 186z" />
    <glyph glyph-name="H" unicode="H" horiz-adv-x="1705" 
d="M1554 0h-452v535h-498v-535h-452v1409h452v-514h498v514h452v-1409z" />
    <glyph glyph-name="I" unicode="I" horiz-adv-x="796" 
d="M625 0h-453v1409h453v-1409z" />
    <glyph glyph-name="J" unicode="J" 
d="M1214 489q0 -514 -583 -514q-282 0 -433 125.5t-151 388.5v19h424v-16q0 -96 35.5 -137.5t109.5 -41.5t110 41.5t36 137.5v917h452v-920z" />
    <glyph glyph-name="K" unicode="K" horiz-adv-x="1705" 
d="M604 807l502 602h561l-506 -580l516 -829h-534l-293 516l-246 -201v-315h-452v1409h452v-602z" />
    <glyph glyph-name="L" unicode="L" 
d="M152 0v1409h452v-1049h723v-360h-1175z" />
    <glyph glyph-name="M" unicode="M" horiz-adv-x="1933" 
d="M1810 0h-448v508q0 95 8 206.5t16 175.5l9 64h-9l-260 -954h-354l-262 952h-8q37 -231 37 -444v-508h-416v1409h639l213 -813h8l211 813h616v-1409z" />
    <glyph glyph-name="N" unicode="N" horiz-adv-x="1705" 
d="M1554 0h-395l-592 684v-684h-415v1409h395l592 -694v694h415v-1409z" />
    <glyph glyph-name="O" unicode="O" horiz-adv-x="1705" 
d="M852 1434q365 0 563.5 -186t198.5 -543t-198.5 -543.5t-563.5 -186.5q-364 0 -562 186.5t-198 543.5t197.5 543t562.5 186zM852 1096q-145 0 -221 -88t-76 -238v-131q0 -150 76 -238t221 -88t222 88.5t77 237.5v131q0 149 -77 237.5t-222 88.5z" />
    <glyph glyph-name="P" unicode="P" horiz-adv-x="1478" 
d="M942 1409q198 0 324.5 -131t126.5 -332v-26q0 -201 -126.5 -333t-324.5 -132h-338v-455h-452v1409h790zM604 1075v-291h187q70 0 106.5 36.5t36.5 101.5v16q0 65 -35.5 101t-107.5 36h-187z" />
    <glyph glyph-name="Q" unicode="Q" horiz-adv-x="1705" 
d="M92 705q0 357 197.5 543t562.5 186t563.5 -186t198.5 -543q0 -237 -89.5 -400.5t-258.5 -247.5l321 -325h-538l-218 243q-356 6 -547.5 191.5t-191.5 538.5zM1151 770q0 149 -77 237.5t-222 88.5t-221 -88t-76 -238v-131q0 -150 76 -238t221 -88t222 88.5t77 237.5v131z
" />
    <glyph glyph-name="R" unicode="R" horiz-adv-x="1593" 
d="M1489 977q0 -128 -70 -233t-202 -154l313 -590h-508l-250 514h-168v-514h-452v1409h862q114 0 206 -35t149.5 -95t88.5 -137.5t31 -164.5zM1028 958q0 56 -37 92.5t-90 36.5h-297v-260h297q53 0 90 37.5t37 93.5z" />
    <glyph glyph-name="S" unicode="S" horiz-adv-x="1478" 
d="M743 1434q130 0 240.5 -26t196 -78t135 -136.5t51.5 -194.5v-24h-424v8q0 61 -45 102t-137 41q-89 0 -138 -26.5t-49 -65.5q0 -33 28 -57.5t76 -39.5t109.5 -27.5t130 -27t137 -33.5t131 -50.5t111 -73.5t78 -108t31.5 -150q0 -103 -31 -185.5t-85.5 -139t-133 -94.5
t-171 -55.5t-200.5 -17.5q-125 0 -224.5 13.5t-190 48t-151 90.5t-95.5 144.5t-35 205.5h428q0 -106 55.5 -142t171.5 -36q39 0 67 2.5t62 11t52 29t18 51.5q0 32 -28.5 55.5t-76.5 38t-110.5 27.5t-131.5 28.5t-137.5 35.5t-131 53.5t-110.5 78.5t-76.5 115t-28.5 158
q0 119 51 208t140.5 141t200 77t240.5 25z" />
    <glyph glyph-name="T" unicode="T" horiz-adv-x="1478" 
d="M1423 1049h-460v-1049h-453v1049h-463v360h1376v-360z" />
    <glyph glyph-name="U" unicode="U" horiz-adv-x="1705" 
d="M1554 567q0 -289 -182.5 -440.5t-517.5 -151.5t-518.5 151.5t-183.5 440.5v842h452v-836q0 -118 63.5 -189t184.5 -71t185.5 71t64.5 189v836h452v-842z" />
    <glyph glyph-name="V" unicode="V" horiz-adv-x="1593" 
d="M1059 0h-524l-500 1409h483l283 -942h8l285 942h462z" />
    <glyph glyph-name="W" unicode="W" horiz-adv-x="2048" 
d="M1708 0h-498l-182 858h-8l-182 -858h-498l-330 1409h471l162 -799h8l160 799h446l170 -799h9l151 799h451z" />
    <glyph glyph-name="X" unicode="X" horiz-adv-x="1593" 
d="M1090 743l503 -743h-549l-260 438h-8l-260 -438h-508l504 745l-455 664h547l213 -360h8l215 360h506z" />
    <glyph glyph-name="Y" unicode="Y" horiz-adv-x="1593" 
d="M1026 547v-547h-453v547l-559 862h521l270 -469h8l270 469h494z" />
    <glyph glyph-name="Z" unicode="Z" horiz-adv-x="1478" 
d="M1399 1264l-654 -926h670v-338h-1366v145l653 926h-604v338h1301v-145z" />
    <glyph glyph-name="bracketleft" unicode="[" horiz-adv-x="796" 
d="M694 1298h-233v-1415h233v-211h-559v1837h559v-211z" />
    <glyph glyph-name="backslash" unicode="\" horiz-adv-x="569" 
d="M571 -98h-249l-326 1605h248z" />
    <glyph glyph-name="bracketright" unicode="]" horiz-adv-x="796" 
d="M694 -328h-559v211h234v1415h-234v211h559v-1837z" />
    <glyph glyph-name="asciicircum" unicode="^" horiz-adv-x="1351" 
d="M1237 690h-291l-268 434l-270 -434h-295l415 719h293z" />
    <glyph glyph-name="underscore" unicode="_" horiz-adv-x="1024" 
d="M1024 -258h-1024v127h1024v-127z" />
    <glyph glyph-name="grave" unicode="`" horiz-adv-x="681" 
d="M635 1212h-260l-328 265l4 8h395z" />
    <glyph glyph-name="a" unicode="a" 
d="M657 1106q117 0 213.5 -18t176.5 -57.5t125 -110t45 -166.5v-422q0 -36 16.5 -58t48.5 -22h74v-236q-9 -5 -25 -11.5t-71.5 -18t-116.5 -11.5q-120 0 -196 36t-105 100q-170 -136 -400 -136q-381 0 -381 304q0 96 33.5 164.5t92.5 111t156 67t205.5 33.5t260.5 9v53
q0 63 -44 96t-114 33q-63 0 -109 -22.5t-46 -71.5v-9h-402q-2 10 -2 29q0 153 146.5 243.5t418.5 90.5zM809 471q-173 0 -256.5 -37.5t-83.5 -101.5q0 -103 139 -103q80 0 140.5 43t60.5 107v92z" />
    <glyph glyph-name="b" unicode="b" 
d="M532 981q116 125 304 125q219 0 337.5 -142t118.5 -421q0 -281 -118.5 -424.5t-337.5 -143.5q-226 0 -344 179l-35 -154h-332v1485h407v-504zM709 805q-90 0 -135.5 -65t-45.5 -167v-67q0 -102 45 -166t136 -64q176 0 176 209v109q0 211 -176 211z" />
    <glyph glyph-name="c" unicode="c" 
d="M682 1106q128 0 233 -26t188 -80t129 -144.5t46 -210.5h-395q0 184 -201 184t-201 -231v-117q0 -229 209 -229t209 188h379q0 -120 -46 -211t-128.5 -145.5t-188.5 -81.5t-233 -27q-284 0 -446 144t-162 422t162 421.5t446 143.5z" />
    <glyph glyph-name="d" unicode="d" 
d="M1241 0h-332l-35 154q-118 -179 -344 -179q-219 0 -337.5 143.5t-118.5 424.5q0 279 118.5 421t337.5 142q188 0 304 -125v504h407v-1485zM657 805q-176 0 -176 -211v-109q0 -209 176 -209q91 0 136 64t45 166v67q0 102 -45.5 167t-135.5 65z" />
    <glyph glyph-name="e" unicode="e" 
d="M682 1106q298 0 454 -139.5t156 -425.5v-70h-811q0 -116 51.5 -175.5t165.5 -59.5q103 0 151 43t48 114h395q0 -197 -149 -307.5t-436 -110.5q-301 0 -467 141t-166 425q0 278 162 421.5t446 143.5zM698 846q-192 0 -215 -182h398q0 85 -48.5 133.5t-134.5 48.5z" />
    <glyph glyph-name="f" unicode="f" horiz-adv-x="796" 
d="M563 1509q46 0 113.5 -10.5t107.5 -25.5v-240h-94q-66 0 -90.5 -25t-24.5 -84v-43h209v-276h-209v-805h-407v805h-152v276h152v45q0 108 28.5 184t82.5 118.5t123 61.5t161 19z" />
    <glyph glyph-name="g" unicode="g" 
d="M1339 1284q0 -126 -62.5 -193t-186.5 -100q60 -45 93.5 -105.5t33.5 -127.5q0 -88 -36.5 -156t-100.5 -109t-144.5 -62t-173.5 -21h-156q-129 0 -129 -60q0 -63 129 -63h369q181 0 272.5 -94t91.5 -252q0 -117 -63.5 -202.5t-165 -127t-225.5 -41.5h-602q-113 0 -193 76
t-80 188q0 80 49.5 144.5t122.5 97.5q-106 72 -106 190q0 80 59.5 145t147.5 87q-79 50 -126.5 117t-47.5 141q0 97 43.5 167t122.5 109t175 56.5t216 17.5q110 0 178 -12q45 28 78.5 58t48.5 52.5t23 41t9 28.5l1 10h335zM662 893q-68 0 -111 -34.5t-43 -100.5
q0 -68 40 -101.5t114 -33.5t115.5 34t41.5 101t-41.5 101t-115.5 34zM504 0q-46 0 -76.5 -26t-30.5 -72t31 -75.5t76 -29.5h319q46 0 77.5 28.5t31.5 74.5t-31.5 73t-77.5 27h-319z" />
    <glyph glyph-name="h" unicode="h" 
d="M530 969q65 65 153.5 101t184.5 36q189 0 283 -105t94 -301v-700h-407v651q0 69 -36 111.5t-102 42.5q-75 0 -122.5 -49.5t-47.5 -120.5v-635h-407v1485h407v-516z" />
    <glyph glyph-name="i" unicode="i" horiz-adv-x="681" 
d="M545 1208h-408v277h408v-277zM545 0h-408v1081h408v-1081z" />
    <glyph glyph-name="j" unicode="j" horiz-adv-x="681" 
d="M545 1208h-408v277h408v-277zM545 -59q0 -196 -89 -283.5t-286 -87.5q-55 0 -132.5 10.5t-121.5 26.5v243h107q114 0 114 132v1099h408v-1140z" />
    <glyph glyph-name="k" unicode="k" 
d="M530 668l347 413h475l-400 -436l410 -645h-463l-227 371l-142 -138v-233h-407v1487h407v-819z" />
    <glyph glyph-name="l" unicode="l" horiz-adv-x="681" 
d="M545 0h-408v1485h408v-1485z" />
    <glyph glyph-name="m" unicode="m" horiz-adv-x="2048" 
d="M1559 1106q184 0 276 -105t92 -301v-700h-407v651q0 69 -34 111.5t-95 42.5q-72 0 -117 -49.5t-45 -120.5v-635h-408v651q0 69 -34 111.5t-95 42.5q-72 0 -117 -49.5t-45 -120.5v-635h-407v1081h334l26 -161q61 86 162.5 136t214.5 50q245 0 328 -186q63 85 163 135.5
t208 50.5z" />
    <glyph glyph-name="n" unicode="n" 
d="M868 1106q189 0 283 -105t94 -301v-700h-407v651q0 69 -36 111.5t-102 42.5q-75 0 -122.5 -49.5t-47.5 -120.5v-635h-407v1081h334l26 -163q63 87 166.5 137.5t218.5 50.5z" />
    <glyph glyph-name="o" unicode="o" 
d="M682 1106q284 0 447 -143.5t163 -421.5t-163 -422t-447 -144t-446 144t-162 422t162 421.5t446 143.5zM682 829q-201 0 -201 -231v-117q0 -229 201 -229q203 0 203 229v117q0 231 -203 231z" />
    <glyph glyph-name="p" unicode="p" 
d="M836 1106q219 0 337.5 -143t118.5 -424q0 -279 -118.5 -421.5t-337.5 -142.5q-190 0 -304 123v-501h-407v1484h332l35 -153q118 178 344 178zM709 805q-91 0 -136 -64t-45 -166v-67q0 -102 45.5 -167t135.5 -65q176 0 176 211v109q0 209 -176 209z" />
    <glyph glyph-name="q" unicode="q" 
d="M530 1106q226 0 344 -178l35 153h332v-1484h-407v501q-114 -123 -304 -123q-219 0 -337.5 142.5t-118.5 421.5q0 281 118.5 424t337.5 143zM657 805q-176 0 -176 -209v-109q0 -211 176 -211q90 0 135.5 65t45.5 167v67q0 102 -45 166t-136 64z" />
    <glyph glyph-name="r" unicode="r" horiz-adv-x="909" 
d="M780 1108q34 0 64 -6t44 -12l13 -7v-342h-131q-128 0 -184 -66t-56 -194v-481h-407v1081h334l26 -163q37 93 116.5 141.5t180.5 48.5z" />
    <glyph glyph-name="s" unicode="s" horiz-adv-x="1251" 
d="M637 1106q101 0 190 -19t164.5 -58.5t119.5 -109t44 -161.5h-379q0 60 -53 84q-36 20 -92 20q-148 0 -148 -69q0 -31 38.5 -49.5t100 -28.5t136 -20t149.5 -31t136.5 -54.5t100 -97.5t38.5 -154q0 -87 -30 -154t-80.5 -109.5t-123.5 -70t-152.5 -38.5t-172.5 -11
q-106 0 -202 21.5t-177 65t-129.5 118.5t-48.5 172h378v-8q1 -37 20 -63t49 -38.5t57 -18t53 -5.5q170 0 170 80q0 32 -38.5 52.5t-100 31.5t-136 22.5t-149.5 33t-136.5 55t-100 96t-38.5 149.5q0 83 29.5 147.5t79 105t120.5 67t147.5 37t166.5 10.5z" />
    <glyph glyph-name="t" unicode="t" horiz-adv-x="909" 
d="M614 1081h230v-276h-230v-412q0 -73 24.5 -107t90.5 -34h115v-240q-48 -16 -126 -26.5t-136 -10.5q-87 0 -152.5 14.5t-117 47t-78.5 89.5t-27 138v541h-152v276h168l88 328h303v-328z" />
    <glyph glyph-name="u" unicode="u" 
d="M1241 0h-334l-26 164q-63 -88 -166 -138.5t-219 -50.5q-189 0 -283 105t-94 301v700h407v-651q0 -69 36 -111.5t102 -42.5q75 0 122.5 49.5t47.5 120.5v635h407v-1081z" />
    <glyph glyph-name="v" unicode="v" horiz-adv-x="1251" 
d="M838 0h-428l-410 1081h438l199 -673h14l199 673h401z" />
    <glyph glyph-name="w" unicode="w" horiz-adv-x="1933" 
d="M1536 0h-397l-168 602h-8l-170 -602h-398l-395 1081h438l164 -639h14l170 639h406l164 -639h14l166 639h397z" />
    <glyph glyph-name="x" unicode="x" 
d="M950 563l406 -563h-475l-205 340h-8l-207 -340h-453l416 573l-375 508h479l172 -286h9l172 286h450z" />
    <glyph glyph-name="y" unicode="y" horiz-adv-x="1251" 
d="M866 33q-32 -86 -64.5 -151.5t-79.5 -126.5t-102.5 -100t-132 -62t-168.5 -23q-130 0 -235 37v243h164q154 0 182 150l-430 1081h438l207 -719h14l191 719h401z" />
    <glyph glyph-name="z" unicode="z" horiz-adv-x="1138" 
d="M1077 954l-459 -678h478v-276h-1055v133l455 672h-430v276h1011v-127z" />
    <glyph glyph-name="braceleft" unicode="{" horiz-adv-x="796" 
d="M715 1309q-152 0 -156 -84l-20 -412q-10 -211 -207 -211v-18q197 0 207 -211l20 -414q4 -86 156 -86v-201h-187q-73 0 -136.5 23.5t-107.5 77.5t-44 129v497q0 57 -51.5 85t-127.5 28v162q70 0 124.5 30t54.5 87v489q0 75 44 128.5t107.5 77t136.5 23.5h187v-200z" />
    <glyph glyph-name="bar" unicode="|" horiz-adv-x="569" 
d="M412 -432h-254v1919h254v-1919z" />
    <glyph glyph-name="braceright" unicode="}" horiz-adv-x="796" 
d="M268 1509q73 0 137 -23.5t108 -77t44 -128.5v-489q0 -57 54 -87t124 -30v-162q-76 0 -127 -27.5t-51 -85.5v-497q0 -75 -44 -129t-108 -77.5t-137 -23.5h-186v201q152 0 156 86l20 414q10 211 207 211v18q-197 0 -207 211l-20 412q-4 84 -156 84v200h186z" />
    <glyph glyph-name="asciitilde" unicode="~" horiz-adv-x="1351" 
d="M1272 571q-6 -7 -16.5 -18t-46.5 -39t-73.5 -49.5t-94.5 -39t-113 -17.5q-42 0 -89 11t-78.5 23t-82.5 35q-53 23 -83 35t-78.5 23.5t-92.5 11.5q-56 0 -112.5 -17t-96 -41t-71.5 -48t-48 -41l-16 -17v266q6 7 16.5 18t46.5 39t73.5 50t94.5 39.5t113 17.5
q42 0 89.5 -11.5t77.5 -23.5t83 -35q50 -22 82.5 -34.5t80.5 -23.5t91 -11q56 0 112.5 17t96 41t71.5 48t48 41l16 17v-267z" />
    <glyph glyph-name="uni00A0" unicode="&#xa0;" horiz-adv-x="681" 
 />
    <glyph glyph-name="exclamdown" unicode="&#xa1;" horiz-adv-x="681" 
d="M543 702h-406v379h406v-379zM586 -328h-490l113 906h260z" />
    <glyph glyph-name="cent" unicode="&#xa2;" 
d="M786 1266q108 -10 195.5 -41.5t155 -85.5t104.5 -137.5t37 -190.5h-395q0 184 -201 184t-201 -231v-117q0 -229 209 -229t209 188h379q0 -108 -37 -192.5t-104 -139t-155 -87t-196 -42.5l17 -282h-232l15 282q-241 24 -376.5 166.5t-135.5 395.5q0 252 135.5 394.5
t376.5 166.5l-15 280h232z" />
    <glyph glyph-name="sterling" unicode="&#xa3;" 
d="M780 1434q250 0 388.5 -119.5t138.5 -302.5v-58h-408v58q0 49 -34.5 83.5t-84.5 34.5t-84 -34t-34 -84v-187h196v-260h-199l-41 -264h578v-301h-1071v301h131v264h-193v260h193v185q0 90 31 166t93.5 134.5t164.5 91t235 32.5z" />
    <glyph glyph-name="currency" unicode="&#xa4;" horiz-adv-x="1351" 
d="M1210 1096l-114 -115q39 -42 62.5 -121t23.5 -166q0 -84 -24 -161.5t-66 -129.5l114 -114l-123 -123l-118 119q-46 -46 -124.5 -72.5t-166.5 -26.5q-86 0 -163.5 25.5t-127.5 69.5l-117 -117l-125 125l119 119q-94 108 -94 286q0 87 24 165t70 122l-119 119l129 129
l117 -117q46 40 125.5 65t161.5 25q85 0 161 -24t117 -62l119 119zM674 977q-113 0 -187.5 -82.5t-74.5 -200.5q0 -119 75 -200.5t187 -81.5q116 0 189 82.5t73 199.5t-73 200t-189 83z" />
    <glyph glyph-name="yen" unicode="&#xa5;" 
d="M1106 940h201v-190h-306l-53 -99h359v-190h-414v-461h-412v461h-415v190h358l-55 99h-303v190h198l-260 469h471l217 -469h8l218 469h444z" />
    <glyph glyph-name="brokenbar" unicode="&#xa6;" horiz-adv-x="569" 
d="M414 688h-254v799h254v-799zM414 -430h-254v799h254v-799z" />
    <glyph glyph-name="section" unicode="&#xa7;" 
d="M676 1434q72 0 141.5 -9t141.5 -31.5t126 -57t88.5 -90.5t34.5 -126v-20h-370q0 47 -44 69.5t-100 22.5q-61 0 -108 -18t-47 -56q0 -33 31 -62.5t81 -51.5t114.5 -47.5t131.5 -50t131.5 -60.5t114.5 -77t81 -101.5t31 -132.5q0 -58 -19 -111t-51 -92.5t-59 -64t-57 -44.5
q156 -107 156 -250q0 -77 -34 -139t-88.5 -100.5t-126.5 -64t-143 -36t-143 -10.5t-141.5 9t-141.5 31.5t-126 57t-88.5 90.5t-34.5 126v20h370q0 -47 44 -69.5t100 -22.5q61 0 108 18t47 56q0 33 -31 62.5t-81 51.5t-114.5 47.5t-131.5 50t-131.5 60.5t-114.5 77t-81 101.5
t-31 132.5q0 58 19 111t50.5 92t58.5 64t56 45q-154 104 -154 249q0 77 34 139t88.5 100.5t126.5 64.5t143 36.5t143 10.5zM516 719q-63 -51 -63 -103q0 -21 6.5 -40t21.5 -37t30.5 -32.5t43 -31t48 -28.5t57.5 -28.5t60 -26t65.5 -27.5t64.5 -27q63 51 63 102q0 21 -6.5 40
t-21.5 37t-30 32.5t-43.5 31.5t-48.5 28.5t-57.5 28.5t-59.5 26.5t-65.5 27.5t-64.5 27z" />
    <glyph glyph-name="dieresis" unicode="&#xa8;" horiz-adv-x="681" 
d="M270 1200h-311v285h311v-285zM721 1200h-311v285h311v-285z" />
    <glyph glyph-name="copyright" unicode="&#xa9;" horiz-adv-x="1638" 
d="M819 1434q211 0 379.5 -96.5t261 -262.5t92.5 -368q0 -151 -54.5 -286t-150 -233t-233 -155.5t-295.5 -57.5t-295 57t-231.5 155.5t-148.5 233t-54 286.5t54 285.5t149 231t231.5 154t294.5 56.5zM819 1303q-262 0 -416.5 -162.5t-154.5 -433.5t155 -434.5t416 -163.5
q262 0 419 163.5t157 434.5q0 270 -157 433t-419 163zM829 1143q188 0 298 -94.5t110 -268.5h-260q0 73 -39.5 116.5t-110.5 43.5q-159 0 -159 -197v-77q0 -92 38.5 -144.5t118.5 -52.5q79 0 119.5 40.5t40.5 115.5h252q0 -174 -106.5 -266.5t-301.5 -92.5q-218 0 -329 111
t-111 328t111 327.5t329 110.5z" />
    <glyph glyph-name="ordfeminine" unicode="&#xaa;" horiz-adv-x="819" 
d="M416 1509q76 0 139 -11t115 -35t81 -66.5t29 -100.5v-252q0 -21 11 -35t32 -14l49 6v-141q-51 -31 -139 -31q-154 0 -196 82q-113 -82 -263 -82q-249 0 -249 183q0 58 22 99t60.5 66.5t102 40t134.5 20t170 5.5v33q0 37 -28.5 56.5t-73.5 19.5q-42 0 -72.5 -14.5
t-30.5 -47.5h-262q-2 6 -2 19q0 92 96 146t275 54zM514 1128q-113 0 -167 -23t-54 -61q0 -61 90 -61q53 0 92 25.5t39 64.5v55z" />
    <glyph glyph-name="guillemotleft" unicode="&#xab;" 
d="M475 664l283 -420h-293l-342 420l342 417h293zM958 664l283 -420h-293l-342 420l342 417h293z" />
    <glyph glyph-name="logicalnot" unicode="&#xac;" horiz-adv-x="1351" 
d="M1237 315h-315v371h-820v318h1135v-689z" />
    <glyph glyph-name="uni00AD" unicode="&#xad;" horiz-adv-x="681" 
d="M602 401h-522v324h522v-324z" />
    <glyph glyph-name="registered" unicode="&#xae;" horiz-adv-x="1638" 
d="M819 1434q211 0 379.5 -96.5t261 -262.5t92.5 -368q0 -151 -54.5 -286t-150 -233t-233 -155.5t-295.5 -57.5t-295 57t-231.5 155.5t-148.5 233t-54 286.5t54 285.5t149 231t231.5 154t294.5 56.5zM819 1303q-262 0 -416.5 -162.5t-154.5 -433.5t155 -434.5t416 -163.5
q262 0 419 163.5t157 434.5q0 270 -157 433t-419 163zM938 1128q99 0 167.5 -59t68.5 -154q0 -85 -42 -136t-96 -74v-11q69 -20 103.5 -72t34.5 -126q0 -26 1.5 -44t7 -43.5t19 -42t35.5 -22.5v-51q-63 -25 -150 -25q-96 0 -143 35t-47 117q0 27 -1 45t-7.5 42.5t-17.5 39
t-33 25t-52 10.5h-38v-299h-273v845h463zM748 936v-166h71q33 0 55.5 24t22.5 60q0 35 -22.5 58.5t-55.5 23.5h-71z" />
    <glyph glyph-name="macron" unicode="&#xaf;" horiz-adv-x="681" 
d="M666 1239h-648v205h648v-205z" />
    <glyph glyph-name="degree" unicode="&#xb0;" horiz-adv-x="819" 
d="M410 1434q126 0 216.5 -91t90.5 -217q0 -127 -90.5 -217t-216.5 -90q-127 0 -216.5 89.5t-91.5 217.5q0 126 90.5 217t217.5 91zM406 1251q-50 0 -87.5 -37.5t-37.5 -89.5t37.5 -89.5t89.5 -37.5t89.5 37.5t37.5 89.5q0 53 -37.5 90t-91.5 37z" />
    <glyph glyph-name="plusminus" unicode="&#xb1;" horiz-adv-x="1351" 
d="M811 1004h406v-271h-406v-373h-270v373h-406v271h406v372h270v-372zM1217 0h-1082v270h1082v-270z" />
    <glyph glyph-name="uni00B2" unicode="&#xb2;" horiz-adv-x="819" 
d="M432 1509q163 0 259.5 -69.5t96.5 -184.5q0 -38 -11 -72.5t-34.5 -65.5t-48.5 -55.5t-65.5 -53t-71.5 -48.5t-81 -51t-81 -51h404v-209h-766v60q0 65 33 117t96 102q53 44 116.5 90t102 73.5t74 56t51.5 52t16 45.5q0 38 -29 64t-87 26q-60 0 -95 -31.5t-35 -82.5v-25
h-239q-2 10 -2 27q0 132 102 209t295 77z" />
    <glyph glyph-name="uni00B3" unicode="&#xb3;" horiz-adv-x="819" 
d="M430 1509q166 0 262 -65.5t96 -163.5q0 -63 -37.5 -113.5t-97.5 -70.5v-9q77 -23 119.5 -76.5t42.5 -129.5q-6 -108 -103.5 -176t-287.5 -68q-192 0 -292.5 68t-100.5 174v26h237q0 -100 140 -100q139 0 139 113q0 43 -26 65.5t-68 22.5h-99v151h78q41 0 67.5 22.5
t26.5 65.5q0 39 -32 67.5t-86 28.5q-58 0 -90.5 -26.5t-32.5 -65.5h-224v31q0 98 99 163.5t270 65.5z" />
    <glyph glyph-name="acute" unicode="&#xb4;" horiz-adv-x="681" 
d="M649 1477l-327 -265h-261l189 273h395z" />
    <glyph glyph-name="uni00B5" unicode="&#xb5;" 
d="M1241 0h-334l-26 164q-60 -82 -154.5 -131.5t-200.5 -55.5v-378h-407v1482h407v-651q0 -69 36 -111.5t102 -42.5q75 0 122.5 49.5t47.5 120.5v635h407v-1081z" />
    <glyph glyph-name="paragraph" unicode="&#xb6;" horiz-adv-x="1740" 
d="M1524 1161h-135v-1491h-263v1491h-217v-1491h-262v852q-178 6 -301 134.5t-123 308.5q0 185 129.5 314.5t313.5 129.5h858v-248z" />
    <glyph glyph-name="periodcentered" unicode="&#xb7;" horiz-adv-x="681" 
d="M537 481h-392v375h392v-375z" />
    <glyph glyph-name="cedilla" unicode="&#xb8;" horiz-adv-x="681" 
d="M406 -59q190 -19 190 -183q0 -55 -24 -95t-63 -59t-77 -27.5t-78 -8.5q-161 0 -258 33v110q134 -16 240 -16q82 0 82 63q0 66 -78 66h-78l39 256h127z" />
    <glyph glyph-name="uni00B9" unicode="&#xb9;" horiz-adv-x="819" 
d="M549 836h211v-189h-699v189h220v383h-220v141q90 6 203 45t195 88h90v-657z" />
    <glyph glyph-name="ordmasculine" unicode="&#xba;" horiz-adv-x="819" 
d="M422 1509q186 0 292.5 -86.5t106.5 -253.5t-106.5 -253.5t-292.5 -86.5q-185 0 -291 87t-106 253t106 253t291 87zM422 1343q-131 0 -131 -139v-69q0 -140 131 -140q133 0 133 140v69q0 139 -133 139z" />
    <glyph glyph-name="guillemotright" unicode="&#xbb;" 
d="M125 1081h293l342 -417l-342 -420h-293l283 420zM608 1081h293l342 -417l-342 -420h-293l283 420z" />
    <glyph glyph-name="onequarter" unicode="&#xbc;" horiz-adv-x="2048" 
d="M727 -25h-195l840 1459h197zM565 762h211v-189h-698v189h219v383h-219v141q90 6 202.5 44.5t194.5 88.5h90v-657zM1690 860q-13 -94 -121 -250t-215 -256h266v174q42 56 84.5 129.5t54.5 120.5h115v-424h129v-180h-129v-174h-254v174h-451v182q72 98 143.5 233.5
t114.5 270.5h263z" />
    <glyph glyph-name="onehalf" unicode="&#xbd;" horiz-adv-x="2048" 
d="M727 -25h-195l840 1459h197zM565 764h211v-189h-698v189h219v383h-219v141q90 6 202.5 44.5t194.5 88.5h90v-657zM1630 860q163 0 260 -69.5t97 -184.5q0 -38 -11 -72.5t-34.5 -65.5t-48.5 -55.5t-66 -53t-72 -48.5t-81 -51t-81 -51h404v-209h-766v59q0 65 33.5 117.5
t95.5 102.5q53 44 116.5 90t102 73.5t74 56t51.5 52t16 45.5q0 38 -29 64t-87 26q-60 0 -94.5 -32t-34.5 -83v-24h-240q-2 10 -2 26q0 133 102 210t295 77z" />
    <glyph glyph-name="threequarters" unicode="&#xbe;" horiz-adv-x="2048" 
d="M457 1436q166 0 262 -66t96 -164q0 -63 -37.5 -113.5t-97.5 -70.5v-8q77 -23 119.5 -77t42.5 -130q-6 -108 -103.5 -176t-287.5 -68q-192 0 -293 68t-101 174v26h238q0 -100 139 -100t139 113q0 43 -26 65.5t-68 22.5h-98v151h78q41 0 67.5 22.5t26.5 65.5q0 39 -32.5 68
t-86.5 29q-58 0 -90.5 -26.5t-32.5 -65.5h-223v30q0 98 99 164t270 66zM727 -25h-195l840 1459h197zM1673 860q-13 -94 -121 -250t-215 -256h267v174q42 56 84.5 129.5t54.5 120.5h115v-424h129v-180h-129v-174h-254v174h-451v182q72 98 143.5 233.5t114.5 270.5h262z" />
    <glyph glyph-name="questiondown" unicode="&#xbf;" horiz-adv-x="1251" 
d="M819 700h-405v379h405v-379zM795 473q0 -41 -27.5 -82.5t-66.5 -76.5t-78.5 -71t-67 -80.5t-27.5 -90.5q0 -60 37 -102t99 -42q133 0 133 172q0 38 -2 56h376q1 -8 4 -35t3 -43q0 -196 -157 -314t-403 -118q-236 0 -380 113.5t-144 303.5q0 66 26 124t65 97.5t84 76.5
t84 63t65 54.5t26 53.5v43h351v-102z" />
    <glyph glyph-name="Agrave" unicode="&#xc0;" horiz-adv-x="1593" 
d="M733 1540l-327 264l4 8h395l188 -272h-260zM1096 0l-60 199h-493l-60 -199h-463l515 1409h526l514 -1409h-479zM637 514h305l-147 502h-9z" />
    <glyph glyph-name="Aacute" unicode="&#xc1;" horiz-adv-x="1593" 
d="M860 1540h-260l188 272h396l4 -8zM1096 0l-60 199h-493l-60 -199h-463l515 1409h526l514 -1409h-479zM637 514h305l-147 502h-9z" />
    <glyph glyph-name="Acircumflex" unicode="&#xc2;" horiz-adv-x="1593" 
d="M1212 1516h-266l-151 157l-152 -157h-262l285 296h262zM1575 0h-479l-60 199h-493l-60 -199h-463l515 1409h526zM786 1016l-149 -502h305l-147 502h-9z" />
    <glyph glyph-name="Atilde" unicode="&#xc3;" horiz-adv-x="1593" 
d="M1251 1812q0 -115 -81 -203.5t-205 -88.5q-68 0 -185 41t-170 41q-37 0 -64 -22.5t-38 -59.5h-166q0 115 81.5 203.5t205.5 88.5q68 0 184.5 -40.5t169.5 -40.5q37 0 64 22.5t38 58.5h166zM1575 0h-479l-60 199h-493l-60 -199h-463l515 1409h526zM786 1016l-149 -502h305
l-147 502h-9z" />
    <glyph glyph-name="Adieresis" unicode="&#xc4;" horiz-adv-x="1593" 
d="M727 1528h-311v284h311v-284zM1178 1528h-312v284h312v-284zM1575 0h-479l-60 199h-493l-60 -199h-463l515 1409h526zM786 1016l-149 -502h305l-147 502h-9z" />
    <glyph glyph-name="Aring" unicode="&#xc5;" horiz-adv-x="1593" 
d="M797 1954q91 0 157 -65t66 -158q0 -91 -65.5 -156.5t-157.5 -65.5q-91 0 -157.5 65t-66.5 157t66 157.5t158 65.5zM797 1812q-37 0 -59.5 -23t-22.5 -60q0 -35 23.5 -57.5t58.5 -22.5q37 0 59.5 23.5t22.5 60.5q0 35 -23 57t-59 22zM1575 0h-479l-60 199h-493l-60 -199
h-463l515 1409h526zM786 1016l-149 -502h305l-147 502h-9z" />
    <glyph glyph-name="AE" unicode="&#xc6;" horiz-adv-x="2048" 
d="M981 199h-479l-70 -199h-463l596 1409h1391v-338h-748l45 -194h588v-324h-512l49 -215h592v-338h-944zM614 514h297l-110 502h-8z" />
    <glyph glyph-name="Ccedilla" unicode="&#xc7;" horiz-adv-x="1593" 
d="M823 1434q313 0 495.5 -157.5t182.5 -447.5h-432q0 124 -64.5 195.5t-183.5 71.5q-266 0 -266 -326v-131q0 -152 64.5 -239t197.5 -87q131 0 198.5 67.5t67.5 190.5h418q0 -280 -166.5 -433.5t-472.5 -162.5l-6 -34q85 -8 138 -51.5t53 -131.5q0 -55 -24 -95t-63 -59
t-77 -27.5t-78 -8.5q-161 0 -258 33v110q133 -16 239 -16q82 0 82 63q0 33 -17.5 49.5t-59.5 16.5h-78l22 153q-318 22 -480.5 206t-162.5 522q0 361 185 545t546 184z" />
    <glyph glyph-name="Egrave" unicode="&#xc8;" horiz-adv-x="1478" 
d="M727 1540l-328 264l4 8h396l188 -272h-260zM152 0v1409h1218v-338h-766v-194h656v-324h-656v-215h780v-338h-1232z" />
    <glyph glyph-name="Eacute" unicode="&#xc9;" horiz-adv-x="1478" 
d="M854 1540h-260l188 272h396l4 -8zM152 0v1409h1218v-338h-766v-194h656v-324h-656v-215h780v-338h-1232z" />
    <glyph glyph-name="Ecircumflex" unicode="&#xca;" horiz-adv-x="1478" 
d="M1206 1516h-266l-152 157l-151 -157h-262l284 296h263zM152 0v1409h1218v-338h-766v-194h656v-324h-656v-215h780v-338h-1232z" />
    <glyph glyph-name="Edieresis" unicode="&#xcb;" horiz-adv-x="1478" 
d="M721 1528h-311v284h311v-284zM1171 1528h-311v284h311v-284zM152 0v1409h1218v-338h-766v-194h656v-324h-656v-215h780v-338h-1232z" />
    <glyph glyph-name="Igrave" unicode="&#xcc;" horiz-adv-x="796" 
d="M336 1540l-328 264l4 8h396l188 -272h-260zM172 0v1409h453v-1409h-453z" />
    <glyph glyph-name="Iacute" unicode="&#xcd;" horiz-adv-x="796" 
d="M463 1540h-260l188 272h395l5 -8zM172 0v1409h453v-1409h-453z" />
    <glyph glyph-name="Icircumflex" unicode="&#xce;" horiz-adv-x="796" 
d="M815 1516h-266l-152 157l-151 -157h-262l284 296h262zM625 0h-453v1409h453v-1409z" />
    <glyph glyph-name="Idieresis" unicode="&#xcf;" horiz-adv-x="796" 
d="M330 1528h-312v284h312v-284zM780 1528h-311v284h311v-284zM625 0h-453v1409h453v-1409z" />
    <glyph glyph-name="Eth" unicode="&#xd0;" horiz-adv-x="1593" 
d="M2 823h150v586h610q739 0 739 -704q0 -705 -739 -705h-610v623h-150v200zM604 623v-285h150q284 0 284 305v123q0 305 -284 305h-150v-248h199v-200h-199z" />
    <glyph glyph-name="Ntilde" unicode="&#xd1;" horiz-adv-x="1705" 
d="M1309 1812q0 -115 -81.5 -203.5t-205.5 -88.5q-68 0 -185 41t-169 41q-38 0 -65 -22.5t-40 -59.5h-166q0 115 81.5 203.5t205.5 88.5q68 0 185 -40.5t169 -40.5q77 0 105 81h166zM1554 0h-395l-592 684v-684h-415v1409h395l592 -694v694h415v-1409z" />
    <glyph glyph-name="Ograve" unicode="&#xd2;" horiz-adv-x="1705" 
d="M791 1540l-328 264l4 8h393l191 -272h-260zM852 1434q365 0 563.5 -186t198.5 -543t-198.5 -543.5t-563.5 -186.5q-364 0 -562 186.5t-198 543.5t197.5 543t562.5 186zM852 1096q-145 0 -221 -88t-76 -238v-131q0 -150 76 -238t221 -88t222 88.5t77 237.5v131
q0 149 -77 237.5t-222 88.5z" />
    <glyph glyph-name="Oacute" unicode="&#xd3;" horiz-adv-x="1705" 
d="M918 1540h-263l191 272h393l4 -8zM852 1434q365 0 563.5 -186t198.5 -543t-198.5 -543.5t-563.5 -186.5q-364 0 -562 186.5t-198 543.5t197.5 543t562.5 186zM852 1096q-145 0 -221 -88t-76 -238v-131q0 -150 76 -238t221 -88t222 88.5t77 237.5v131q0 149 -77 237.5
t-222 88.5z" />
    <glyph glyph-name="Ocircumflex" unicode="&#xd4;" horiz-adv-x="1705" 
d="M1270 1516h-266l-152 157l-154 -157h-262l287 296h260zM852 1434q365 0 563.5 -186t198.5 -543t-198.5 -543.5t-563.5 -186.5q-364 0 -562 186.5t-198 543.5t197.5 543t562.5 186zM852 1096q-145 0 -221 -88t-76 -238v-131q0 -150 76 -238t221 -88t222 88.5t77 237.5v131
q0 149 -77 237.5t-222 88.5z" />
    <glyph glyph-name="Otilde" unicode="&#xd5;" horiz-adv-x="1705" 
d="M1309 1812q0 -115 -81.5 -203.5t-205.5 -88.5q-68 0 -185 41t-169 41q-38 0 -65 -22.5t-40 -59.5h-166q0 115 81.5 203.5t205.5 88.5q68 0 185 -40.5t169 -40.5q77 0 105 81h166zM852 1434q365 0 563.5 -186t198.5 -543t-198.5 -543.5t-563.5 -186.5q-364 0 -562 186.5
t-198 543.5t197.5 543t562.5 186zM852 1096q-145 0 -221 -88t-76 -238v-131q0 -150 76 -238t221 -88t222 88.5t77 237.5v131q0 149 -77 237.5t-222 88.5z" />
    <glyph glyph-name="Odieresis" unicode="&#xd6;" horiz-adv-x="1705" 
d="M782 1528h-311v284h311v-284zM1235 1528h-311v284h311v-284zM852 1434q365 0 563.5 -186t198.5 -543t-198.5 -543.5t-563.5 -186.5q-364 0 -562 186.5t-198 543.5t197.5 543t562.5 186zM852 1096q-145 0 -221 -88t-76 -238v-131q0 -150 76 -238t221 -88t222 88.5
t77 237.5v131q0 149 -77 237.5t-222 88.5z" />
    <glyph glyph-name="multiply" unicode="&#xd7;" horiz-adv-x="1351" 
d="M1212 885l-346 -344l346 -344l-192 -193l-344 346l-344 -346l-193 193l346 344l-346 344l193 192l344 -346l344 346z" />
    <glyph glyph-name="Oslash" unicode="&#xd8;" horiz-adv-x="1705" 
d="M1407 1253q207 -186 207 -548q0 -357 -198.5 -543.5t-563.5 -186.5q-246 0 -414 82l-106 -131h-221l184 230q-203 188 -203 549q0 357 197.5 543t562.5 186q238 0 414 -84l108 135h221zM852 1096q-145 0 -221 -88t-76 -238v-131q0 -80 20 -139l447 551q-70 45 -170 45z
M682 358q70 -45 170 -45q145 0 222 88.5t77 237.5v131q0 72 -23 139z" />
    <glyph glyph-name="Ugrave" unicode="&#xd9;" horiz-adv-x="1705" 
d="M791 1540l-328 264l4 8h393l191 -272h-260zM1554 567q0 -289 -182.5 -440.5t-517.5 -151.5t-518.5 151.5t-183.5 440.5v842h452v-836q0 -118 63.5 -189t184.5 -71t185.5 71t64.5 189v836h452v-842z" />
    <glyph glyph-name="Uacute" unicode="&#xda;" horiz-adv-x="1705" 
d="M918 1540h-263l191 272h393l4 -8zM1554 567q0 -289 -182.5 -440.5t-517.5 -151.5t-518.5 151.5t-183.5 440.5v842h452v-836q0 -118 63.5 -189t184.5 -71t185.5 71t64.5 189v836h452v-842z" />
    <glyph glyph-name="Ucircumflex" unicode="&#xdb;" horiz-adv-x="1705" 
d="M1270 1516h-266l-152 157l-154 -157h-262l287 296h260zM1554 567q0 -289 -182.5 -440.5t-517.5 -151.5t-518.5 151.5t-183.5 440.5v842h452v-836q0 -118 63.5 -189t184.5 -71t185.5 71t64.5 189v836h452v-842z" />
    <glyph glyph-name="Udieresis" unicode="&#xdc;" horiz-adv-x="1705" 
d="M782 1528h-311v284h311v-284zM1235 1528h-311v284h311v-284zM1554 567q0 -289 -182.5 -440.5t-517.5 -151.5t-518.5 151.5t-183.5 440.5v842h452v-836q0 -118 63.5 -189t184.5 -71t185.5 71t64.5 189v836h452v-842z" />
    <glyph glyph-name="Yacute" unicode="&#xdd;" horiz-adv-x="1593" 
d="M860 1540h-260l188 272h396l4 -8zM1026 0h-453v547l-559 862h521l270 -469h8l270 469h494l-551 -862v-547z" />
    <glyph glyph-name="Thorn" unicode="&#xde;" horiz-adv-x="1478" 
d="M604 1204h338q198 0 324.5 -131t126.5 -332v-26q0 -201 -126.5 -333t-324.5 -132h-338v-250h-452v1409h452v-205zM604 870v-290h187q71 0 107 36t36 101v16q0 65 -35.5 101t-107.5 36h-187z" />
    <glyph glyph-name="germandbls" unicode="&#xdf;" 
d="M688 1509q79 0 152 -11t144 -39.5t123 -71t84 -111t32 -154.5q0 -99 -52.5 -183t-140.5 -120v-10q109 -40 178.5 -144t69.5 -227q0 -214 -138.5 -326t-365.5 -112h-131v279h57q70 0 120 56.5t50 133.5q0 81 -50.5 139t-119.5 58h-57v288h55q57 0 95 40.5t38 99.5
q0 62 -38.5 101.5t-104.5 39.5q-65 0 -104 -40t-39 -101v-1094h-408v1059q0 94 32 171t85 128t125 85.5t149.5 50t159.5 15.5z" />
    <glyph glyph-name="agrave" unicode="&#xe0;" 
d="M596 1212l-330 265l4 8h396l188 -273h-258zM657 1106q117 0 213.5 -18t176.5 -57.5t125 -110t45 -166.5v-422q0 -36 16.5 -58t48.5 -22h74v-236q-9 -5 -25 -11.5t-71.5 -18t-116.5 -11.5q-120 0 -196 36t-105 100q-170 -136 -400 -136q-381 0 -381 304q0 96 33.5 164.5
t92.5 111t156 67t205.5 33.5t260.5 9v53q0 63 -44 96t-114 33q-63 0 -109 -22.5t-46 -71.5v-9h-402q-2 10 -2 29q0 153 146.5 243.5t418.5 90.5zM809 471q-173 0 -256.5 -37.5t-83.5 -101.5q0 -103 139 -103q80 0 140.5 43t60.5 107v92z" />
    <glyph glyph-name="aacute" unicode="&#xe1;" 
d="M723 1212h-262l188 273h395l5 -8zM657 1106q117 0 213.5 -18t176.5 -57.5t125 -110t45 -166.5v-422q0 -36 16.5 -58t48.5 -22h74v-236q-9 -5 -25 -11.5t-71.5 -18t-116.5 -11.5q-120 0 -196 36t-105 100q-170 -136 -400 -136q-381 0 -381 304q0 96 33.5 164.5t92.5 111
t156 67t205.5 33.5t260.5 9v53q0 63 -44 96t-114 33q-63 0 -109 -22.5t-46 -71.5v-9h-402q-2 10 -2 29q0 153 146.5 243.5t418.5 90.5zM809 471q-173 0 -256.5 -37.5t-83.5 -101.5q0 -103 139 -103q80 0 140.5 43t60.5 107v92z" />
    <glyph glyph-name="acircumflex" unicode="&#xe2;" 
d="M1100 1188h-266l-152 158l-154 -158h-262l287 297h260zM657 1106q117 0 213.5 -18t176.5 -57.5t125 -110t45 -166.5v-422q0 -36 16.5 -58t48.5 -22h74v-236q-9 -5 -25 -11.5t-71.5 -18t-116.5 -11.5q-120 0 -196 36t-105 100q-170 -136 -400 -136q-381 0 -381 304
q0 96 33.5 164.5t92.5 111t156 67t205.5 33.5t260.5 9v53q0 63 -44 96t-114 33q-63 0 -109 -22.5t-46 -71.5v-9h-402q-2 10 -2 29q0 153 146.5 243.5t418.5 90.5zM809 471q-173 0 -256.5 -37.5t-83.5 -101.5q0 -103 139 -103q80 0 140.5 43t60.5 107v92z" />
    <glyph glyph-name="atilde" unicode="&#xe3;" 
d="M1139 1485q0 -115 -81.5 -204t-205.5 -89q-68 0 -185 41t-169 41q-38 0 -65 -22.5t-40 -59.5h-166q0 115 81.5 204t205.5 89q68 0 185 -41t169 -41q38 0 65 22.5t40 59.5h166zM657 1106q117 0 213.5 -18t176.5 -57.5t125 -110t45 -166.5v-422q0 -36 16.5 -58t48.5 -22h74
v-236q-9 -5 -25 -11.5t-71.5 -18t-116.5 -11.5q-120 0 -196 36t-105 100q-170 -136 -400 -136q-381 0 -381 304q0 96 33.5 164.5t92.5 111t156 67t205.5 33.5t260.5 9v53q0 63 -44 96t-114 33q-63 0 -109 -22.5t-46 -71.5v-9h-402q-2 10 -2 29q0 153 146.5 243.5t418.5 90.5
zM809 471q-173 0 -256.5 -37.5t-83.5 -101.5q0 -103 139 -103q80 0 140.5 43t60.5 107v92z" />
    <glyph glyph-name="adieresis" unicode="&#xe4;" 
d="M612 1200h-311v285h311v-285zM1065 1200h-311v285h311v-285zM657 1106q117 0 213.5 -18t176.5 -57.5t125 -110t45 -166.5v-422q0 -36 16.5 -58t48.5 -22h74v-236q-9 -5 -25 -11.5t-71.5 -18t-116.5 -11.5q-120 0 -196 36t-105 100q-170 -136 -400 -136q-381 0 -381 304
q0 96 33.5 164.5t92.5 111t156 67t205.5 33.5t260.5 9v53q0 63 -44 96t-114 33q-63 0 -109 -22.5t-46 -71.5v-9h-402q-2 10 -2 29q0 153 146.5 243.5t418.5 90.5zM809 471q-173 0 -256.5 -37.5t-83.5 -101.5q0 -103 139 -103q80 0 140.5 43t60.5 107v92z" />
    <glyph glyph-name="aring" unicode="&#xe5;" 
d="M682 1626q93 0 158 -65t65 -158q0 -91 -65 -156t-158 -65q-91 0 -156 64.5t-65 156.5t64.5 157.5t156.5 65.5zM682 1485q-35 0 -58.5 -23.5t-23.5 -60.5q0 -35 24 -57.5t58 -22.5q37 0 60.5 23.5t23.5 60.5q0 35 -24 57.5t-60 22.5zM657 1106q117 0 213.5 -18
t176.5 -57.5t125 -110t45 -166.5v-422q0 -36 16.5 -58t48.5 -22h74v-236q-9 -5 -25 -11.5t-71.5 -18t-116.5 -11.5q-120 0 -196 36t-105 100q-170 -136 -400 -136q-381 0 -381 304q0 96 33.5 164.5t92.5 111t156 67t205.5 33.5t260.5 9v53q0 63 -44 96t-114 33
q-63 0 -109 -22.5t-46 -71.5v-9h-402q-2 10 -2 29q0 153 146.5 243.5t418.5 90.5zM809 471q-173 0 -256.5 -37.5t-83.5 -101.5q0 -103 139 -103q80 0 140.5 43t60.5 107v92z" />
    <glyph glyph-name="ae" unicode="&#xe6;" horiz-adv-x="2048" 
d="M1421 1106q570 0 570 -565v-70h-770q0 -116 46.5 -175.5t149.5 -59.5q93 0 135.5 43t42.5 114h396q0 -197 -139.5 -307.5t-405.5 -110.5q-319 0 -479 150q-200 -150 -443 -150q-112 0 -193.5 16t-144 52t-94 100t-31.5 156q0 65 17 116.5t48 89.5t80.5 66t108 45.5
t138.5 28.5t164.5 15t191.5 4v53q0 63 -42 96t-108 33q-67 0 -115 -22.5t-48 -71.5v-9h-402q-2 10 -2 29q0 153 146.5 243.5t418.5 90.5q265 0 404 -98q146 98 360 98zM1409 846q-167 0 -186 -182h356q0 85 -44.5 133.5t-125.5 48.5zM809 471q-173 0 -256.5 -37.5
t-83.5 -101.5q0 -103 139 -103q80 0 140.5 43t60.5 107v92z" />
    <glyph glyph-name="ccedilla" unicode="&#xe7;" 
d="M682 1106q128 0 233 -26t188 -80t129 -144.5t46 -210.5h-395q0 184 -201 184t-201 -231v-117q0 -229 209 -229t209 188h379q0 -112 -40.5 -199t-113 -141.5t-167 -85t-209.5 -37.5l-5 -36q85 -8 138 -51.5t53 -131.5q0 -55 -24 -95t-63 -59t-77.5 -27.5t-79.5 -8.5
q-157 0 -258 33v110q133 -16 242 -16q82 0 82 63q0 66 -78 66h-80l25 153q-258 15 -403.5 158t-145.5 406q0 278 162 421.5t446 143.5z" />
    <glyph glyph-name="egrave" unicode="&#xe8;" 
d="M621 1212l-328 265l4 8h393l191 -273h-260zM682 1106q298 0 454 -139.5t156 -425.5v-70h-811q0 -116 51.5 -175.5t165.5 -59.5q103 0 151 43t48 114h395q0 -197 -149 -307.5t-436 -110.5q-301 0 -467 141t-166 425q0 278 162 421.5t446 143.5zM698 846q-192 0 -215 -182
h398q0 85 -48.5 133.5t-134.5 48.5z" />
    <glyph glyph-name="eacute" unicode="&#xe9;" 
d="M748 1212h-263l191 273h393l4 -8zM682 1106q298 0 454 -139.5t156 -425.5v-70h-811q0 -116 51.5 -175.5t165.5 -59.5q103 0 151 43t48 114h395q0 -197 -149 -307.5t-436 -110.5q-301 0 -467 141t-166 425q0 278 162 421.5t446 143.5zM698 846q-192 0 -215 -182h398
q0 85 -48.5 133.5t-134.5 48.5z" />
    <glyph glyph-name="ecircumflex" unicode="&#xea;" 
d="M1100 1188h-266l-152 158l-154 -158h-262l287 297h260zM682 1106q298 0 454 -139.5t156 -425.5v-70h-811q0 -116 51.5 -175.5t165.5 -59.5q103 0 151 43t48 114h395q0 -197 -149 -307.5t-436 -110.5q-301 0 -467 141t-166 425q0 278 162 421.5t446 143.5zM698 846
q-192 0 -215 -182h398q0 85 -48.5 133.5t-134.5 48.5z" />
    <glyph glyph-name="edieresis" unicode="&#xeb;" 
d="M612 1200h-311v285h311v-285zM1065 1200h-311v285h311v-285zM682 1106q298 0 454 -139.5t156 -425.5v-70h-811q0 -116 51.5 -175.5t165.5 -59.5q103 0 151 43t48 114h395q0 -197 -149 -307.5t-436 -110.5q-301 0 -467 141t-166 425q0 278 162 421.5t446 143.5zM698 846
q-192 0 -215 -182h398q0 85 -48.5 133.5t-134.5 48.5z" />
    <glyph glyph-name="igrave" unicode="&#xec;" horiz-adv-x="681" 
d="M279 1212l-328 265l4 8h393l191 -273h-260zM137 0v1081h408v-1081h-408z" />
    <glyph glyph-name="iacute" unicode="&#xed;" horiz-adv-x="681" 
d="M406 1212h-263l191 273h393l4 -8zM137 0v1081h408v-1081h-408z" />
    <glyph glyph-name="icircumflex" unicode="&#xee;" horiz-adv-x="681" 
d="M758 1188h-266l-152 158l-154 -158h-262l287 297h260zM545 0h-408v1081h408v-1081z" />
    <glyph glyph-name="idieresis" unicode="&#xef;" horiz-adv-x="681" 
d="M270 1200h-311v285h311v-285zM723 1200h-311v285h311v-285zM545 0h-408v1081h408v-1081z" />
    <glyph glyph-name="eth" unicode="&#xf0;" 
d="M743 1485q60 -30 140 -96l284 32v-159l-139 -17q264 -310 264 -704q0 -278 -163 -422t-447 -144t-446 144t-162 422q0 239 145 385.5t391 146.5q78 0 135 -16q-46 71 -102 143l-338 -39v160l201 22q-97 87 -170 134l2 8h405zM682 829q-201 0 -201 -231v-117
q0 -229 201 -229q203 0 203 229v117q0 231 -203 231z" />
    <glyph glyph-name="ntilde" unicode="&#xf1;" 
d="M1139 1485q0 -115 -81.5 -204t-205.5 -89q-68 0 -185 41t-169 41q-38 0 -65 -22.5t-40 -59.5h-166q0 115 81.5 204t205.5 89q68 0 185 -41t169 -41q38 0 65 22.5t40 59.5h166zM868 1106q189 0 283 -105t94 -301v-700h-407v651q0 69 -36 111.5t-102 42.5
q-75 0 -122.5 -49.5t-47.5 -120.5v-635h-407v1081h334l26 -163q63 87 166.5 137.5t218.5 50.5z" />
    <glyph glyph-name="ograve" unicode="&#xf2;" 
d="M621 1212l-328 265l4 8h393l191 -273h-260zM682 1106q284 0 447 -143.5t163 -421.5t-163 -422t-447 -144t-446 144t-162 422t162 421.5t446 143.5zM682 829q-201 0 -201 -231v-117q0 -229 201 -229q203 0 203 229v117q0 231 -203 231z" />
    <glyph glyph-name="oacute" unicode="&#xf3;" 
d="M748 1212h-263l191 273h393l4 -8zM682 1106q284 0 447 -143.5t163 -421.5t-163 -422t-447 -144t-446 144t-162 422t162 421.5t446 143.5zM682 829q-201 0 -201 -231v-117q0 -229 201 -229q203 0 203 229v117q0 231 -203 231z" />
    <glyph glyph-name="ocircumflex" unicode="&#xf4;" 
d="M1100 1188h-266l-152 158l-154 -158h-262l287 297h260zM682 1106q284 0 447 -143.5t163 -421.5t-163 -422t-447 -144t-446 144t-162 422t162 421.5t446 143.5zM682 829q-201 0 -201 -231v-117q0 -229 201 -229q203 0 203 229v117q0 231 -203 231z" />
    <glyph glyph-name="otilde" unicode="&#xf5;" 
d="M1139 1485q0 -115 -81.5 -204t-205.5 -89q-68 0 -185 41t-169 41q-38 0 -65 -22.5t-40 -59.5h-166q0 115 81.5 204t205.5 89q68 0 185 -41t169 -41q38 0 65 22.5t40 59.5h166zM682 1106q284 0 447 -143.5t163 -421.5t-163 -422t-447 -144t-446 144t-162 422t162 421.5
t446 143.5zM682 829q-201 0 -201 -231v-117q0 -229 201 -229q203 0 203 229v117q0 231 -203 231z" />
    <glyph glyph-name="odieresis" unicode="&#xf6;" 
d="M612 1200h-311v285h311v-285zM1065 1200h-311v285h311v-285zM682 1106q284 0 447 -143.5t163 -421.5t-163 -422t-447 -144t-446 144t-162 422t162 421.5t446 143.5zM682 829q-201 0 -201 -231v-117q0 -229 201 -229q203 0 203 229v117q0 231 -203 231z" />
    <glyph glyph-name="divide" unicode="&#xf7;" horiz-adv-x="1351" 
d="M813 772h-268v268h268v-268zM1217 401h-1082v271h1082v-271zM813 31h-268v268h268v-268z" />
    <glyph glyph-name="oslash" unicode="&#xf8;" 
d="M1128 963q164 -148 164 -422q0 -278 -163 -422t-447 -144q-170 0 -303 54l-96 -121h-189l158 196q-178 148 -178 437q0 278 162 421.5t446 143.5q188 0 322 -64l81 103h189zM682 829q-201 0 -201 -231v-117q0 -45 6 -82l318 398q-50 32 -123 32zM575 274q46 -22 107 -22
q203 0 203 229v117q0 21 -4 57z" />
    <glyph glyph-name="ugrave" unicode="&#xf9;" 
d="M621 1212l-328 265l4 8h393l191 -273h-260zM907 0l-26 164q-63 -88 -166 -138.5t-219 -50.5q-189 0 -283 105t-94 301v700h407v-651q0 -69 36 -111.5t102 -42.5q75 0 122.5 49.5t47.5 120.5v635h407v-1081h-334z" />
    <glyph glyph-name="uacute" unicode="&#xfa;" 
d="M748 1212h-263l191 273h393l4 -8zM907 0l-26 164q-63 -88 -166 -138.5t-219 -50.5q-189 0 -283 105t-94 301v700h407v-651q0 -69 36 -111.5t102 -42.5q75 0 122.5 49.5t47.5 120.5v635h407v-1081h-334z" />
    <glyph glyph-name="ucircumflex" unicode="&#xfb;" 
d="M1100 1188h-266l-152 158l-154 -158h-262l287 297h260zM1241 0h-334l-26 164q-63 -88 -166 -138.5t-219 -50.5q-189 0 -283 105t-94 301v700h407v-651q0 -69 36 -111.5t102 -42.5q75 0 122.5 49.5t47.5 120.5v635h407v-1081z" />
    <glyph glyph-name="udieresis" unicode="&#xfc;" 
d="M612 1200h-311v285h311v-285zM1065 1200h-311v285h311v-285zM1241 0h-334l-26 164q-63 -88 -166 -138.5t-219 -50.5q-189 0 -283 105t-94 301v700h407v-651q0 -69 36 -111.5t102 -42.5q75 0 122.5 49.5t47.5 120.5v635h407v-1081z" />
    <glyph glyph-name="yacute" unicode="&#xfd;" horiz-adv-x="1251" 
d="M690 1212h-262l190 273h396l4 -8zM866 33q-32 -86 -64.5 -151.5t-79.5 -126.5t-102.5 -100t-132 -62t-168.5 -23q-130 0 -235 37v243h164q154 0 182 150l-430 1081h438l207 -719h14l191 719h401z" />
    <glyph glyph-name="thorn" unicode="&#xfe;" 
d="M532 979q115 127 304 127q219 0 337.5 -143t118.5 -424q0 -279 -118.5 -421.5t-337.5 -142.5q-190 0 -304 123v-501h-407v1888h407v-506zM709 805q-91 0 -136 -64t-45 -166v-67q0 -102 45.5 -167t135.5 -65q176 0 176 211v109q0 209 -176 209z" />
    <glyph glyph-name="ydieresis" unicode="&#xff;" horiz-adv-x="1251" 
d="M555 1200h-309v285h309v-285zM1008 1200h-312v285h312v-285zM866 33q-32 -86 -64.5 -151.5t-79.5 -126.5t-102.5 -100t-132 -62t-168.5 -23q-130 0 -235 37v243h164q154 0 182 150l-430 1081h438l207 -719h14l191 719h401z" />
    <glyph glyph-name="Amacron" unicode="&#x100;" horiz-adv-x="1593" 
d="M1120 1567h-647v205h647v-205zM1575 0h-479l-60 199h-493l-60 -199h-463l515 1409h526zM786 1016l-149 -502h305l-147 502h-9z" />
    <glyph glyph-name="amacron" unicode="&#x101;" 
d="M1008 1239h-650v205h650v-205zM657 1106q117 0 213.5 -18t176.5 -57.5t125 -110t45 -166.5v-422q0 -36 16.5 -58t48.5 -22h74v-236q-9 -5 -25 -11.5t-71.5 -18t-116.5 -11.5q-120 0 -196 36t-105 100q-170 -136 -400 -136q-381 0 -381 304q0 96 33.5 164.5t92.5 111
t156 67t205.5 33.5t260.5 9v53q0 63 -44 96t-114 33q-63 0 -109 -22.5t-46 -71.5v-9h-402q-2 10 -2 29q0 153 146.5 243.5t418.5 90.5zM809 471q-173 0 -256.5 -37.5t-83.5 -101.5q0 -103 139 -103q80 0 140.5 43t60.5 107v92z" />
    <glyph glyph-name="Abreve" unicode="&#x102;" horiz-adv-x="1593" 
d="M1176 1812q0 -110 -107.5 -202t-271.5 -92q-86 0 -159 26.5t-119.5 69t-72.5 94.5t-26 104h196q7 -36 59 -69t122 -33t123.5 33t60.5 69h195zM1575 0h-479l-60 199h-493l-60 -199h-463l515 1409h526zM786 1016l-149 -502h305l-147 502h-9z" />
    <glyph glyph-name="abreve" unicode="&#x103;" 
d="M1061 1485q0 -111 -107 -203t-272 -92q-167 0 -272 92t-105 203h197q7 -37 55 -68q58 -35 125 -35q71 0 124 33.5t60 69.5h195zM657 1106q117 0 213.5 -18t176.5 -57.5t125 -110t45 -166.5v-422q0 -36 16.5 -58t48.5 -22h74v-236q-9 -5 -25 -11.5t-71.5 -18t-116.5 -11.5
q-120 0 -196 36t-105 100q-170 -136 -400 -136q-381 0 -381 304q0 96 33.5 164.5t92.5 111t156 67t205.5 33.5t260.5 9v53q0 63 -44 96t-114 33q-63 0 -109 -22.5t-46 -71.5v-9h-402q-2 10 -2 29q0 153 146.5 243.5t418.5 90.5zM809 471q-173 0 -256.5 -37.5t-83.5 -101.5
q0 -103 139 -103q80 0 140.5 43t60.5 107v92z" />
    <glyph glyph-name="Aogonek" unicode="&#x104;" horiz-adv-x="1593" 
d="M1575 0h-266q-33 -68 -33 -141q0 -45 29.5 -75t93.5 -30h86v-155q-98 -31 -197 -31q-110 0 -185 57.5t-75 175.5q0 97 82 199h-14l-60 199h-493l-60 -199h-463l515 1409h526zM786 1016l-149 -502h305l-147 502h-9z" />
    <glyph glyph-name="aogonek" unicode="&#x105;" 
d="M657 1106q117 0 213.5 -18t176.5 -57.5t125 -110t45 -166.5v-422q0 -36 16.5 -58t48.5 -22h74v-236q-9 -5 -25 -11.5t-71.5 -18t-116.5 -11.5q-23 -63 -23 -116q0 -45 29.5 -75t93.5 -30h86v-155q-95 -31 -194 -31q-52 0 -97.5 13t-83 40t-59 73t-21.5 107
q0 42 14.5 82.5t30.5 64t42 56.5q-88 37 -119 107q-170 -136 -400 -136q-381 0 -381 304q0 96 33.5 164.5t92.5 111t156 67t205.5 33.5t260.5 9v53q0 63 -44 96t-114 33q-63 0 -109 -22.5t-46 -71.5v-9h-402q-2 10 -2 29q0 153 146.5 243.5t418.5 90.5zM809 471
q-173 0 -256.5 -37.5t-83.5 -101.5q0 -103 139 -103q80 0 140.5 43t60.5 107v92z" />
    <glyph glyph-name="Cacute" unicode="&#x106;" horiz-adv-x="1593" 
d="M883 1540h-262l190 272h393l4 -8zM823 1434q313 0 495.5 -157.5t182.5 -447.5h-432q0 124 -64.5 195.5t-183.5 71.5q-266 0 -266 -326v-131q0 -152 64.5 -239t197.5 -87q131 0 198.5 67.5t67.5 190.5h418q0 -289 -177 -442.5t-501 -153.5q-361 0 -546 184.5t-185 545.5
t185 545t546 184z" />
    <glyph glyph-name="cacute" unicode="&#x107;" 
d="M748 1212h-263l191 273h393l4 -8zM682 1106q128 0 233 -26t188 -80t129 -144.5t46 -210.5h-395q0 184 -201 184t-201 -231v-117q0 -229 209 -229t209 188h379q0 -120 -46 -211t-128.5 -145.5t-188.5 -81.5t-233 -27q-284 0 -446 144t-162 422t162 421.5t446 143.5z" />
    <glyph glyph-name="Ccircumflex" unicode="&#x108;" horiz-adv-x="1593" 
d="M1212 1516h-266l-151 157l-152 -157h-262l285 296h262zM823 1434q313 0 495.5 -157.5t182.5 -447.5h-432q0 124 -64.5 195.5t-183.5 71.5q-266 0 -266 -326v-131q0 -152 64.5 -239t197.5 -87q131 0 198.5 67.5t67.5 190.5h418q0 -289 -177 -442.5t-501 -153.5
q-361 0 -546 184.5t-185 545.5t185 545t546 184z" />
    <glyph glyph-name="ccircumflex" unicode="&#x109;" 
d="M1100 1188h-266l-152 158l-154 -158h-262l287 297h260zM682 1106q128 0 233 -26t188 -80t129 -144.5t46 -210.5h-395q0 184 -201 184t-201 -231v-117q0 -229 209 -229t209 188h379q0 -120 -46 -211t-128.5 -145.5t-188.5 -81.5t-233 -27q-284 0 -446 144t-162 422
t162 421.5t446 143.5z" />
    <glyph glyph-name="Cdotaccent" unicode="&#x10a;" horiz-adv-x="1593" 
d="M952 1528h-311v284h311v-284zM823 1434q313 0 495.5 -157.5t182.5 -447.5h-432q0 124 -64.5 195.5t-183.5 71.5q-266 0 -266 -326v-131q0 -152 64.5 -239t197.5 -87q131 0 198.5 67.5t67.5 190.5h418q0 -289 -177 -442.5t-501 -153.5q-361 0 -546 184.5t-185 545.5
t185 545t546 184z" />
    <glyph glyph-name="cdotaccent" unicode="&#x10b;" 
d="M840 1200h-314v285h314v-285zM682 1106q128 0 233 -26t188 -80t129 -144.5t46 -210.5h-395q0 184 -201 184t-201 -231v-117q0 -229 209 -229t209 188h379q0 -120 -46 -211t-128.5 -145.5t-188.5 -81.5t-233 -27q-284 0 -446 144t-162 422t162 421.5t446 143.5z" />
    <glyph glyph-name="Ccaron" unicode="&#x10c;" horiz-adv-x="1593" 
d="M928 1516h-262l-285 296h262l152 -157l151 157h266zM823 1434q313 0 495.5 -157.5t182.5 -447.5h-432q0 124 -64.5 195.5t-183.5 71.5q-266 0 -266 -326v-131q0 -152 64.5 -239t197.5 -87q131 0 198.5 67.5t67.5 190.5h418q0 -289 -177 -442.5t-501 -153.5
q-361 0 -546 184.5t-185 545.5t185 545t546 184z" />
    <glyph glyph-name="ccaron" unicode="&#x10d;" 
d="M813 1188h-260l-287 297h262l154 -158l152 158h266zM682 1106q128 0 233 -26t188 -80t129 -144.5t46 -210.5h-395q0 184 -201 184t-201 -231v-117q0 -229 209 -229t209 188h379q0 -120 -46 -211t-128.5 -145.5t-188.5 -81.5t-233 -27q-284 0 -446 144t-162 422t162 421.5
t446 143.5z" />
    <glyph glyph-name="Dcaron" unicode="&#x10e;" horiz-adv-x="1593" 
d="M854 1516h-262l-287 296h262l154 -157l151 157h267zM762 1409q739 0 739 -704q0 -705 -739 -705h-610v1409h610zM604 1071v-733h150q284 0 284 305v123q0 305 -284 305h-150z" />
    <glyph glyph-name="dcaron" unicode="&#x10f;" horiz-adv-x="1728" 
d="M1241 0h-332l-35 154q-118 -179 -344 -179q-219 0 -337.5 143.5t-118.5 424.5q0 279 118.5 421t337.5 142q188 0 304 -125v504h407v-1485zM1608 1188l-111 -203h-137l84 189h-103v235h267v-221zM657 805q-176 0 -176 -211v-109q0 -209 176 -209q91 0 136 64t45 166v67
q0 102 -45.5 167t-135.5 65z" />
    <glyph glyph-name="Dcroat" unicode="&#x110;" horiz-adv-x="1593" 
d="M2 823h150v586h610q739 0 739 -704q0 -705 -739 -705h-610v623h-150v200zM604 623v-285h150q284 0 284 305v123q0 305 -284 305h-150v-248h199v-200h-199z" />
    <glyph glyph-name="dcroat" unicode="&#x111;" 
d="M1241 1368h125v-190h-125v-1178h-332l-35 154q-118 -179 -344 -179q-219 0 -337.5 143.5t-118.5 424.5q0 279 118.5 421t337.5 142q188 0 304 -125v197h-146v190h146v117h407v-117zM657 805q-176 0 -176 -211v-109q0 -209 176 -209q91 0 136 64t45 166v67
q0 102 -45.5 167t-135.5 65z" />
    <glyph glyph-name="Emacron" unicode="&#x112;" horiz-adv-x="1478" 
d="M1114 1567h-647v205h647v-205zM152 0v1409h1218v-338h-766v-194h656v-324h-656v-215h780v-338h-1232z" />
    <glyph glyph-name="emacron" unicode="&#x113;" 
d="M1008 1239h-650v205h650v-205zM682 1106q298 0 454 -139.5t156 -425.5v-70h-811q0 -116 51.5 -175.5t165.5 -59.5q103 0 151 43t48 114h395q0 -197 -149 -307.5t-436 -110.5q-301 0 -467 141t-166 425q0 278 162 421.5t446 143.5zM698 846q-192 0 -215 -182h398
q0 85 -48.5 133.5t-134.5 48.5z" />
    <glyph glyph-name="Ebreve" unicode="&#x114;" horiz-adv-x="1478" 
d="M1167 1812q0 -52 -27 -104t-74.5 -94.5t-120.5 -69t-157 -26.5q-167 0 -271.5 91.5t-104.5 202.5h196q7 -36 58.5 -69t121.5 -33q71 0 124.5 33t60.5 69h194zM152 0v1409h1218v-338h-766v-194h656v-324h-656v-215h780v-338h-1232z" />
    <glyph glyph-name="ebreve" unicode="&#x115;" 
d="M1061 1485q0 -111 -107 -203t-272 -92q-167 0 -272 92t-105 203h197q7 -37 55 -68q58 -35 125 -35q71 0 124 33.5t60 69.5h195zM682 1106q298 0 454 -139.5t156 -425.5v-70h-811q0 -116 51.5 -175.5t165.5 -59.5q103 0 151 43t48 114h395q0 -197 -149 -307.5t-436 -110.5
q-301 0 -467 141t-166 425q0 278 162 421.5t446 143.5zM698 846q-192 0 -215 -182h398q0 85 -48.5 133.5t-134.5 48.5z" />
    <glyph glyph-name="Edotaccent" unicode="&#x116;" horiz-adv-x="1478" 
d="M946 1528h-311v284h311v-284zM152 0v1409h1218v-338h-766v-194h656v-324h-656v-215h780v-338h-1232z" />
    <glyph glyph-name="edotaccent" unicode="&#x117;" 
d="M840 1200h-314v285h314v-285zM682 1106q298 0 454 -139.5t156 -425.5v-70h-811q0 -116 51.5 -175.5t165.5 -59.5q103 0 151 43t48 114h395q0 -197 -149 -307.5t-436 -110.5q-301 0 -467 141t-166 425q0 278 162 421.5t446 143.5zM698 846q-192 0 -215 -182h398
q0 85 -48.5 133.5t-134.5 48.5z" />
    <glyph glyph-name="Eogonek" unicode="&#x118;" horiz-adv-x="1478" 
d="M1370 1071h-766v-194h656v-324h-656v-215h780v-338h-100q-33 -78 -33 -141q0 -45 29.5 -75t93.5 -30h86v-155q-98 -31 -196 -31q-51 0 -96 13t-82 40t-58.5 73t-21.5 107q0 98 81 199h-935v1409h1218v-338z" />
    <glyph glyph-name="eogonek" unicode="&#x119;" 
d="M682 1106q298 0 454 -139.5t156 -425.5v-70h-811q0 -116 51.5 -175.5t165.5 -59.5q103 0 151 43t48 114h395q0 -141 -77 -239.5t-228 -143.5q-39 -71 -39 -151q0 -44 30 -74.5t93 -30.5h86v-155q-95 -31 -194 -31q-52 0 -97.5 13t-83 40t-59 73t-21.5 107q0 89 66 174
h-61q-301 0 -467 141t-166 425q0 278 162 421.5t446 143.5zM698 846q-192 0 -215 -182h398q0 85 -48.5 133.5t-134.5 48.5z" />
    <glyph glyph-name="Ecaron" unicode="&#x11a;" horiz-adv-x="1478" 
d="M922 1516h-263l-284 296h262l151 -157l152 157h266zM152 0v1409h1218v-338h-766v-194h656v-324h-656v-215h780v-338h-1232z" />
    <glyph glyph-name="ecaron" unicode="&#x11b;" 
d="M813 1188h-260l-287 297h262l154 -158l152 158h266zM682 1106q298 0 454 -139.5t156 -425.5v-70h-811q0 -116 51.5 -175.5t165.5 -59.5q103 0 151 43t48 114h395q0 -197 -149 -307.5t-436 -110.5q-301 0 -467 141t-166 425q0 278 162 421.5t446 143.5zM698 846
q-192 0 -215 -182h398q0 85 -48.5 133.5t-134.5 48.5z" />
    <glyph glyph-name="Gcircumflex" unicode="&#x11c;" horiz-adv-x="1705" 
d="M1270 1516h-266l-152 157l-154 -157h-262l287 296h260zM860 1434q150 0 279 -34.5t227.5 -100t154.5 -168.5t56 -232h-432q0 88 -77.5 142.5t-188.5 54.5q-159 0 -241.5 -85t-82.5 -241v-131q0 -156 82.5 -241t241.5 -85q110 0 188 52t78 135h-320v286h752v-786h-234
l-45 139q-191 -164 -503 -164q-351 0 -527 184t-176 546q0 357 199.5 543t568.5 186z" />
    <glyph glyph-name="gcircumflex" unicode="&#x11d;" 
d="M1001 1188h-266l-110 158l-113 -158h-262l246 297h262zM1339 1284q0 -126 -62.5 -193t-186.5 -100q60 -45 93.5 -105.5t33.5 -127.5q0 -88 -36.5 -156t-100.5 -109t-144.5 -62t-173.5 -21h-156q-129 0 -129 -60q0 -63 129 -63h369q181 0 272.5 -94t91.5 -252
q0 -117 -63.5 -202.5t-165 -127t-225.5 -41.5h-602q-113 0 -193 76t-80 188q0 80 49.5 144.5t122.5 97.5q-106 72 -106 190q0 80 59.5 145t147.5 87q-79 50 -126.5 117t-47.5 141q0 97 43.5 167t122.5 109t175 56.5t216 17.5q110 0 178 -12q51 0 91 10.5t63 27t38.5 37
t21.5 41t8.5 37t1.5 27.5l-1 10h272zM662 893q-68 0 -111 -34.5t-43 -100.5q0 -68 40 -101.5t114 -33.5t115.5 34t41.5 101t-41.5 101t-115.5 34zM504 0q-46 0 -76.5 -26t-30.5 -72t31 -75.5t76 -29.5h319q46 0 77.5 28.5t31.5 74.5t-31.5 73t-77.5 27h-319z" />
    <glyph glyph-name="Gbreve" unicode="&#x11e;" horiz-adv-x="1705" 
d="M1231 1812q0 -52 -27 -104t-74.5 -94.5t-120.5 -69t-157 -26.5q-167 0 -272 91.5t-105 202.5h197q7 -36 58.5 -69t121.5 -33q71 0 124 33t60 69h195zM860 1434q150 0 279 -34.5t227.5 -100t154.5 -168.5t56 -232h-432q0 88 -77.5 142.5t-188.5 54.5q-159 0 -241.5 -85
t-82.5 -241v-131q0 -156 82.5 -241t241.5 -85q110 0 188 52t78 135h-320v286h752v-786h-234l-45 139q-191 -164 -503 -164q-351 0 -527 184t-176 546q0 357 199.5 543t568.5 186z" />
    <glyph glyph-name="gbreve" unicode="&#x11f;" 
d="M1055 1485q0 -110 -107.5 -202.5t-271.5 -92.5q-86 0 -159 26.5t-119.5 69.5t-72.5 95t-26 104h197q7 -37 55 -68q58 -35 125 -35q70 0 123.5 33.5t58.5 69.5h197zM1339 1284q0 -126 -62.5 -193t-186.5 -100q60 -45 93.5 -105.5t33.5 -127.5q0 -88 -36.5 -156
t-100.5 -109t-144.5 -62t-173.5 -21h-156q-129 0 -129 -60q0 -63 129 -63h369q181 0 272.5 -94t91.5 -252q0 -117 -63.5 -202.5t-165 -127t-225.5 -41.5h-602q-113 0 -193 76t-80 188q0 80 49.5 144.5t122.5 97.5q-106 72 -106 190q0 80 59.5 145t147.5 87
q-79 50 -126.5 117t-47.5 141q0 97 43.5 167t122.5 109t175 56.5t216 17.5q110 0 178 -12q56 0 99.5 19.5t65.5 47.5t36.5 56t18.5 47l3 20h272zM662 893q-68 0 -111 -34.5t-43 -100.5q0 -68 40 -101.5t114 -33.5t115.5 34t41.5 101t-41.5 101t-115.5 34zM504 0
q-46 0 -76.5 -26t-30.5 -72t31 -75.5t76 -29.5h319q46 0 77.5 28.5t31.5 74.5t-31.5 73t-77.5 27h-319z" />
    <glyph glyph-name="Gdotaccent" unicode="&#x120;" horiz-adv-x="1705" 
d="M1010 1528h-314v284h314v-284zM860 1434q150 0 279 -34.5t227.5 -100t154.5 -168.5t56 -232h-432q0 88 -77.5 142.5t-188.5 54.5q-159 0 -241.5 -85t-82.5 -241v-131q0 -156 82.5 -241t241.5 -85q110 0 188 52t78 135h-320v286h752v-786h-234l-45 139
q-191 -164 -503 -164q-351 0 -527 184t-176 546q0 357 199.5 543t568.5 186z" />
    <glyph glyph-name="gdotaccent" unicode="&#x121;" 
d="M776 1200h-311v285h311v-285zM1339 1284q0 -126 -62.5 -193t-186.5 -100q60 -45 93.5 -105.5t33.5 -127.5q0 -88 -36.5 -156t-100.5 -109t-144.5 -62t-173.5 -21h-156q-129 0 -129 -60q0 -63 129 -63h369q181 0 272.5 -94t91.5 -252q0 -117 -63.5 -202.5t-165 -127
t-225.5 -41.5h-602q-113 0 -193 76t-80 188q0 80 49.5 144.5t122.5 97.5q-106 72 -106 190q0 80 59.5 145t147.5 87q-79 50 -126.5 117t-47.5 141q0 97 43.5 167t122.5 109t175 56.5t216 17.5q110 0 178 -12q45 28 78.5 58t48.5 52.5t23 41t9 28.5l1 10h335zM662 893
q-68 0 -111 -34.5t-43 -100.5q0 -68 40 -101.5t114 -33.5t115.5 34t41.5 101t-41.5 101t-115.5 34zM504 0q-46 0 -76.5 -26t-30.5 -72t31 -75.5t76 -29.5h319q46 0 77.5 28.5t31.5 74.5t-31.5 73t-77.5 27h-319z" />
    <glyph glyph-name="Gcommaaccent" unicode="&#x122;" horiz-adv-x="1705" 
d="M860 1434q150 0 279 -34.5t227.5 -100t154.5 -168.5t56 -232h-432q0 88 -77.5 142.5t-188.5 54.5q-159 0 -241.5 -85t-82.5 -241v-131q0 -156 82.5 -241t241.5 -85q110 0 188 52t78 135h-320v286h752v-786h-234l-45 139q-191 -164 -503 -164q-351 0 -527 184t-176 546
q0 357 199.5 543t568.5 186zM985 -344l-111 -203h-137l84 189h-100v237h264v-223z" />
    <glyph glyph-name="gcommaaccent" unicode="&#x123;" 
d="M528 1395l111 202h137l-84 -188h103v-238h-267v224zM1339 1284q0 -126 -62.5 -193t-186.5 -100q60 -45 93.5 -105.5t33.5 -127.5q0 -88 -36.5 -156t-100.5 -109t-144.5 -62t-173.5 -21h-156q-129 0 -129 -60q0 -63 129 -63h369q181 0 272.5 -94t91.5 -252
q0 -117 -63.5 -202.5t-165 -127t-225.5 -41.5h-602q-113 0 -193 76t-80 188q0 80 49.5 144.5t122.5 97.5q-106 72 -106 190q0 80 59.5 145t147.5 87q-79 50 -126.5 117t-47.5 141q0 97 43.5 167t122.5 109t175 56.5t216 17.5q110 0 178 -12q45 28 78.5 58t48.5 52.5t23 41
t9 28.5l1 10h335zM662 893q-68 0 -111 -34.5t-43 -100.5q0 -68 40 -101.5t114 -33.5t115.5 34t41.5 101t-41.5 101t-115.5 34zM504 0q-46 0 -76.5 -26t-30.5 -72t31 -75.5t76 -29.5h319q46 0 77.5 28.5t31.5 74.5t-31.5 73t-77.5 27h-319z" />
    <glyph glyph-name="Hcircumflex" unicode="&#x124;" horiz-adv-x="1705" 
d="M1270 1516h-266l-152 157l-154 -157h-262l287 296h260zM1554 0h-452v535h-498v-535h-452v1409h452v-514h498v514h452v-1409z" />
    <glyph glyph-name="hcircumflex" unicode="&#x125;" 
d="M743 1516h-266l-151 157l-154 -157h-260l285 296h262zM530 969q65 65 153.5 101t184.5 36q189 0 283 -105t94 -301v-700h-407v651q0 69 -36 111.5t-102 42.5q-75 0 -122.5 -49.5t-47.5 -120.5v-635h-407v1485h407v-516z" />
    <glyph glyph-name="Hbar" unicode="&#x126;" horiz-adv-x="1705" 
d="M1554 1028v-1028h-452v514h-498v-514h-452v1028h-150v201h150v180h452v-180h498v180h452v-180h148v-201h-148zM1102 874v154h-498v-154h498z" />
    <glyph glyph-name="hbar" unicode="&#x127;" 
d="M530 1368h144v-190h-144v-209q65 65 153.5 101t184.5 36q189 0 283 -105t94 -301v-700h-407v651q0 69 -36 111.5t-102 42.5q-75 0 -122.5 -49.5t-47.5 -120.5v-635h-407v1178h-127v190h127v117h407v-117z" />
    <glyph glyph-name="Itilde" unicode="&#x128;" horiz-adv-x="796" 
d="M854 1812q0 -115 -81.5 -203.5t-205.5 -88.5q-68 0 -184.5 41t-169.5 41q-37 0 -64 -22.5t-38 -59.5h-166q0 115 81 203.5t205 88.5q68 0 185 -40.5t170 -40.5q37 0 64 22.5t38 58.5h166zM625 0h-453v1409h453v-1409z" />
    <glyph glyph-name="itilde" unicode="&#x129;" horiz-adv-x="681" 
d="M797 1485q0 -115 -81.5 -204t-205.5 -89q-68 0 -185 41t-169 41q-38 0 -65 -22.5t-40 -59.5h-166q0 115 81.5 204t205.5 89q68 0 185 -41t169 -41q38 0 65 22.5t40 59.5h166zM545 0h-408v1081h408v-1081z" />
    <glyph glyph-name="Imacron" unicode="&#x12a;" horiz-adv-x="796" 
d="M723 1567h-647v205h647v-205zM625 0h-453v1409h453v-1409z" />
    <glyph glyph-name="imacron" unicode="&#x12b;" horiz-adv-x="681" 
d="M666 1239h-650v205h650v-205zM545 0h-408v1081h408v-1081z" />
    <glyph glyph-name="Ibreve" unicode="&#x12c;" horiz-adv-x="796" 
d="M776 1812q0 -52 -27 -104t-74.5 -94.5t-120.5 -69t-157 -26.5q-167 0 -272 91.5t-105 202.5h197q7 -36 59 -69t121 -33q71 0 124.5 33t60.5 69h194zM625 0h-453v1409h453v-1409z" />
    <glyph glyph-name="ibreve" unicode="&#x12d;" horiz-adv-x="681" 
d="M719 1485q0 -111 -107 -203t-272 -92q-167 0 -272 92t-105 203h197q7 -37 55 -68q58 -35 125 -35q71 0 124 33.5t60 69.5h195zM545 0h-408v1081h408v-1081z" />
    <glyph glyph-name="Iogonek" unicode="&#x12e;" horiz-adv-x="796" 
d="M625 0h-13q-32 -75 -32 -141q0 -45 29 -75t93 -30h86v-155q-98 -31 -196 -31q-51 0 -96 13t-82 40t-58.5 73t-21.5 107q0 97 82 199h-244v1409h453v-1409z" />
    <glyph glyph-name="iogonek" unicode="&#x12f;" horiz-adv-x="681" 
d="M498 1200h-314v285h314v-285zM545 0h-47q-33 -68 -33 -141q0 -45 29.5 -75t93.5 -30h86v-155q-98 -31 -197 -31q-110 0 -185 57.5t-75 175.5q0 97 82 199h-162v1081h408v-1081z" />
    <glyph glyph-name="Idotaccent" unicode="&#x130;" horiz-adv-x="796" 
d="M555 1528h-311v284h311v-284zM625 0h-453v1409h453v-1409z" />
    <glyph glyph-name="dotlessi" unicode="&#x131;" horiz-adv-x="681" 
d="M545 0h-408v1081h408v-1081z" />
    <glyph glyph-name="IJ" unicode="&#x132;" horiz-adv-x="2105" 
d="M625 0h-453v1409h453v-1409zM1954 489q0 -263 -151 -388.5t-433 -125.5t-433 125.5t-151 388.5v19h424v-16q0 -96 36 -137.5t110 -41.5t109.5 41.5t35.5 137.5v917h453v-920z" />
    <glyph glyph-name="ij" unicode="&#x133;" horiz-adv-x="1368" 
d="M545 1208h-408v277h408v-277zM1231 1208h-408v277h408v-277zM545 0h-408v1081h408v-1081zM1231 -59q0 -196 -89 -283.5t-286 -87.5q-55 0 -132.5 10.5t-121.5 26.5v243h107q114 0 114 132v1099h408v-1140z" />
    <glyph glyph-name="Jcircumflex" unicode="&#x134;" 
d="M1382 1516h-266l-151 157l-154 -157h-260l285 296h262zM1214 489q0 -514 -583 -514q-282 0 -433 125.5t-151 388.5v19h424v-16q0 -96 35.5 -137.5t109.5 -41.5t110 41.5t36 137.5v917h452v-920z" />
    <glyph glyph-name="jcircumflex" unicode="&#x135;" horiz-adv-x="681" 
d="M760 1188h-266l-152 158l-152 -158h-262l285 297h262zM545 -59q0 -196 -89 -283.5t-286 -87.5q-55 0 -132.5 10.5t-121.5 26.5v243h107q114 0 114 132v1099h408v-1140z" />
    <glyph glyph-name="Kcommaaccent" unicode="&#x136;" horiz-adv-x="1705" 
d="M604 807l502 602h561l-506 -580l516 -829h-534l-293 516l-246 -201v-315h-452v1409h452v-602zM985 -344l-111 -203h-137l84 189h-100v237h264v-223z" />
    <glyph glyph-name="kcommaaccent" unicode="&#x137;" 
d="M530 668l347 413h475l-400 -436l410 -645h-463l-227 371l-142 -138v-233h-407v1487h407v-819zM815 -344l-110 -203h-138l84 189h-100v237h264v-223z" />
    <glyph glyph-name="kgreenlandic" unicode="&#x138;" 
d="M952 645l410 -645h-463l-227 371l-142 -138v-233h-407v1081h407v-413l347 413h475z" />
    <glyph glyph-name="Lacute" unicode="&#x139;" 
d="M440 1540h-260l189 272h395l4 -8zM152 0v1409h452v-1049h723v-360h-1175z" />
    <glyph glyph-name="lacute" unicode="&#x13a;" horiz-adv-x="681" 
d="M406 1540h-263l191 272h393l4 -8zM137 0v1485h408v-1485h-408z" />
    <glyph glyph-name="Lcommaaccent" unicode="&#x13b;" 
d="M152 0v1409h452v-1049h723v-360h-1175zM815 -344l-110 -203h-138l84 189h-100v237h264v-223z" />
    <glyph glyph-name="lcommaaccent" unicode="&#x13c;" horiz-adv-x="681" 
d="M545 0h-408v1485h408v-1485zM473 -344l-111 -203h-137l84 189h-100v237h264v-223z" />
    <glyph glyph-name="Lcaron" unicode="&#x13d;" 
d="M152 0v1409h452v-1049h723v-360h-1175zM1280 1186l-111 -203h-137l84 188h-100v238h264v-223z" />
    <glyph glyph-name="lcaron" unicode="&#x13e;" horiz-adv-x="1024" 
d="M545 0h-408v1485h408v-1485zM1001 1071l-186 -393h-194l145 373h-145v358h380v-338z" />
    <glyph glyph-name="Ldot" unicode="&#x13f;" 
d="M152 0v1409h452v-1049h723v-360h-1175zM1188 702h-393v375h393v-375z" />
    <glyph glyph-name="ldot" unicode="&#x140;" horiz-adv-x="1093" 
d="M545 0h-408v1485h408v-1485zM1049 797h-314v284h314v-284z" />
    <glyph glyph-name="Lslash" unicode="&#x141;" 
d="M604 948l305 191v-205l-305 -189v-385h723v-360h-1175v469l-152 -92v201l152 94v737h452v-461z" />
    <glyph glyph-name="lslash" unicode="&#x142;" horiz-adv-x="681" 
d="M545 922l196 120v-204l-196 -119v-719h-408v479l-168 -100v201l168 102v803h408v-563z" />
    <glyph glyph-name="Nacute" unicode="&#x143;" horiz-adv-x="1705" 
d="M918 1540h-263l191 272h393l4 -8zM1159 0l-592 684v-684h-415v1409h395l592 -694v694h415v-1409h-395z" />
    <glyph glyph-name="nacute" unicode="&#x144;" 
d="M748 1212h-263l191 273h393l4 -8zM868 1106q189 0 283 -105t94 -301v-700h-407v651q0 69 -36 111.5t-102 42.5q-75 0 -122.5 -49.5t-47.5 -120.5v-635h-407v1081h334l26 -163q63 87 166.5 137.5t218.5 50.5z" />
    <glyph glyph-name="Ncommaaccent" unicode="&#x145;" horiz-adv-x="1705" 
d="M1554 0h-395l-592 684v-684h-415v1409h395l592 -694v694h415v-1409zM985 -344l-111 -203h-137l84 189h-100v237h264v-223z" />
    <glyph glyph-name="ncommaaccent" unicode="&#x146;" 
d="M868 1106q189 0 283 -105t94 -301v-700h-407v651q0 69 -36 111.5t-102 42.5q-75 0 -122.5 -49.5t-47.5 -120.5v-635h-407v1081h334l26 -163q63 87 166.5 137.5t218.5 50.5zM815 -344l-110 -203h-138l84 189h-100v237h264v-223z" />
    <glyph glyph-name="Ncaron" unicode="&#x147;" horiz-adv-x="1705" 
d="M983 1516h-260l-287 296h262l154 -157l152 157h266zM1554 0h-395l-592 684v-684h-415v1409h395l592 -694v694h415v-1409z" />
    <glyph glyph-name="ncaron" unicode="&#x148;" 
d="M813 1188h-260l-287 297h262l154 -158l152 158h266zM868 1106q189 0 283 -105t94 -301v-700h-407v651q0 69 -36 111.5t-102 42.5q-75 0 -122.5 -49.5t-47.5 -120.5v-635h-407v1081h334l26 -163q63 87 166.5 137.5t218.5 50.5z" />
    <glyph glyph-name="napostrophe" unicode="&#x149;" horiz-adv-x="1757" 
d="M430 1186l-111 -203h-137l84 188h-100v238h264v-223zM1260 1106q189 0 282.5 -105t93.5 -301v-700h-407v651q0 70 -35.5 112t-101.5 42q-75 0 -122.5 -49.5t-47.5 -120.5v-635h-408v1081h334l26 -163q63 87 167 137.5t219 50.5z" />
    <glyph glyph-name="Eng" unicode="&#x14a;" horiz-adv-x="1667" 
d="M1554 -59q0 -196 -88.5 -283.5t-285.5 -87.5q-55 0 -132.5 10.5t-121.5 26.5v243h100q115 0 115 132v38l-574 664v-684h-415v1409h395l592 -694v694h415v-1468z" />
    <glyph glyph-name="eng" unicode="&#x14b;" horiz-adv-x="1394" 
d="M883 1106q189 0 283 -105t94 -301v-759q0 -196 -89 -283.5t-286 -87.5q-55 0 -132.5 10.5t-121.5 26.5v243h106q115 0 115 132v669q0 70 -35.5 112t-101.5 42q-75 0 -122.5 -49.5t-47.5 -120.5v-635h-408v1081h334l27 -163q63 87 166.5 137.5t218.5 50.5z" />
    <glyph glyph-name="Omacron" unicode="&#x14c;" horiz-adv-x="1705" 
d="M1178 1567h-650v205h650v-205zM852 1434q365 0 563.5 -186t198.5 -543t-198.5 -543.5t-563.5 -186.5q-364 0 -562 186.5t-198 543.5t197.5 543t562.5 186zM852 1096q-145 0 -221 -88t-76 -238v-131q0 -150 76 -238t221 -88t222 88.5t77 237.5v131q0 149 -77 237.5
t-222 88.5z" />
    <glyph glyph-name="omacron" unicode="&#x14d;" 
d="M1008 1239h-650v205h650v-205zM682 1106q284 0 447 -143.5t163 -421.5t-163 -422t-447 -144t-446 144t-162 422t162 421.5t446 143.5zM682 829q-201 0 -201 -231v-117q0 -229 201 -229q203 0 203 229v117q0 231 -203 231z" />
    <glyph glyph-name="Obreve" unicode="&#x14e;" horiz-adv-x="1705" 
d="M1231 1812q0 -52 -27 -104t-74.5 -94.5t-120.5 -69t-157 -26.5q-167 0 -272 91.5t-105 202.5h197q7 -36 58.5 -69t121.5 -33q71 0 124 33t60 69h195zM852 1434q365 0 563.5 -186t198.5 -543t-198.5 -543.5t-563.5 -186.5q-364 0 -562 186.5t-198 543.5t197.5 543
t562.5 186zM852 1096q-145 0 -221 -88t-76 -238v-131q0 -150 76 -238t221 -88t222 88.5t77 237.5v131q0 149 -77 237.5t-222 88.5z" />
    <glyph glyph-name="obreve" unicode="&#x14f;" 
d="M1061 1485q0 -111 -107 -203t-272 -92q-167 0 -272 92t-105 203h197q7 -37 55 -68q58 -35 125 -35q71 0 124 33.5t60 69.5h195zM682 1106q284 0 447 -143.5t163 -421.5t-163 -422t-447 -144t-446 144t-162 422t162 421.5t446 143.5zM682 829q-201 0 -201 -231v-117
q0 -229 201 -229q203 0 203 229v117q0 231 -203 231z" />
    <glyph glyph-name="Ohungarumlaut" unicode="&#x150;" horiz-adv-x="1705" 
d="M1028 1806l-285 -266h-239l155 275h365zM1460 1806l-284 -266h-240l156 275h364zM852 1434q365 0 563.5 -186t198.5 -543t-198.5 -543.5t-563.5 -186.5q-364 0 -562 186.5t-198 543.5t197.5 543t562.5 186zM852 1096q-145 0 -221 -88t-76 -238v-131q0 -150 76 -238
t221 -88t222 88.5t77 237.5v131q0 149 -77 237.5t-222 88.5z" />
    <glyph glyph-name="ohungarumlaut" unicode="&#x151;" 
d="M852 1477l-285 -267h-239l155 275h365zM1284 1477l-285 -267h-239l155 275h365zM682 1106q284 0 447 -143.5t163 -421.5t-163 -422t-447 -144t-446 144t-162 422t162 421.5t446 143.5zM682 829q-201 0 -201 -231v-117q0 -229 201 -229q203 0 203 229v117q0 231 -203 231z
" />
    <glyph glyph-name="OE" unicode="&#x152;" horiz-adv-x="2048" 
d="M1014 0v127q-146 -152 -381 -152q-268 0 -414.5 191.5t-146.5 538.5t146.5 538t414.5 191q236 0 381 -154v129h964v-338h-567v-194h457v-324h-457v-215h582v-338h-979zM1016 770q0 150 -65.5 238t-192.5 88t-192.5 -88t-65.5 -238v-131q0 -150 65.5 -238t192.5 -88
t192.5 88t65.5 238v131z" />
    <glyph glyph-name="oe" unicode="&#x153;" horiz-adv-x="2048" 
d="M1405 1106q590 0 590 -565v-70h-770q0 -116 46.5 -175.5t149.5 -59.5q93 0 135.5 43t42.5 114h396q0 -197 -144 -307.5t-421 -110.5q-252 0 -402 103q-147 -103 -381 -103q-274 0 -431 144t-157 422t157 421.5t431 143.5q234 0 381 -102q147 102 377 102zM1421 846
q-175 0 -194 -182h356q0 85 -43 133.5t-119 48.5zM647 829q-180 0 -180 -231v-117q0 -229 180 -229q182 0 182 229v117q0 231 -182 231z" />
    <glyph glyph-name="Racute" unicode="&#x154;" horiz-adv-x="1593" 
d="M838 1540h-260l188 272h395l4 -8zM1489 977q0 -128 -70 -233t-202 -154l313 -590h-508l-250 514h-168v-514h-452v1409h862q114 0 206 -35t149.5 -95t88.5 -137.5t31 -164.5zM1028 958q0 56 -37 92.5t-90 36.5h-297v-260h297q53 0 90 37.5t37 93.5z" />
    <glyph glyph-name="racute" unicode="&#x155;" horiz-adv-x="909" 
d="M371 1212h-262l190 273h393l4 -8zM780 1108q34 0 64 -6t44 -12l13 -7v-342h-131q-128 0 -184 -66t-56 -194v-481h-407v1081h334l26 -163q37 93 116.5 141.5t180.5 48.5z" />
    <glyph glyph-name="Rcommaaccent" unicode="&#x156;" horiz-adv-x="1593" 
d="M1489 977q0 -128 -70 -233t-202 -154l313 -590h-508l-250 514h-168v-514h-452v1409h862q114 0 206 -35t149.5 -95t88.5 -137.5t31 -164.5zM1028 958q0 56 -37 92.5t-90 36.5h-297v-260h297q53 0 90 37.5t37 93.5zM930 -344l-111 -203h-137l84 189h-102v237h266v-223z" />
    <glyph glyph-name="rcommaaccent" unicode="&#x157;" horiz-adv-x="909" 
d="M780 1108q34 0 64 -6t44 -12l13 -7v-342h-131q-128 0 -184 -66t-56 -194v-481h-407v1081h334l26 -163q37 93 116.5 141.5t180.5 48.5zM588 -344l-111 -203h-137l84 189h-102v237h266v-223z" />
    <glyph glyph-name="Rcaron" unicode="&#x158;" horiz-adv-x="1593" 
d="M928 1516h-262l-285 296h262l152 -157l151 157h266zM1489 977q0 -128 -70 -233t-202 -154l313 -590h-508l-250 514h-168v-514h-452v1409h862q114 0 206 -35t149.5 -95t88.5 -137.5t31 -164.5zM1028 958q0 56 -37 92.5t-90 36.5h-297v-260h297q53 0 90 37.5t37 93.5z" />
    <glyph glyph-name="rcaron" unicode="&#x159;" horiz-adv-x="909" 
d="M586 1188h-262l-285 297h262l152 -158l151 158h266zM780 1108q34 0 64 -6t44 -12l13 -7v-342h-131q-128 0 -184 -66t-56 -194v-481h-407v1081h334l26 -163q37 93 116.5 141.5t180.5 48.5z" />
    <glyph glyph-name="Sacute" unicode="&#x15a;" horiz-adv-x="1478" 
d="M805 1540h-262l188 272h395l4 -8zM743 1434q130 0 240.5 -26t196 -78t135 -136.5t51.5 -194.5v-24h-424v8q0 61 -45 102t-137 41q-89 0 -138 -26.5t-49 -65.5q0 -33 28 -57.5t76 -39.5t109.5 -27.5t130 -27t137 -33.5t131 -50.5t111 -73.5t78 -108t31.5 -150
q0 -103 -31 -185.5t-85.5 -139t-133 -94.5t-171 -55.5t-200.5 -17.5q-125 0 -224.5 13.5t-190 48t-151 90.5t-95.5 144.5t-35 205.5h428q0 -106 55.5 -142t171.5 -36q39 0 67 2.5t62 11t52 29t18 51.5q0 32 -28.5 55.5t-76.5 38t-110.5 27.5t-131.5 28.5t-137.5 35.5
t-131 53.5t-110.5 78.5t-76.5 115t-28.5 158q0 119 51 208t140.5 141t200 77t240.5 25z" />
    <glyph glyph-name="sacute" unicode="&#x15b;" horiz-adv-x="1251" 
d="M690 1212h-262l190 273h396l4 -8zM637 1106q101 0 190 -19t164.5 -58.5t119.5 -109t44 -161.5h-379q0 60 -53 84q-36 20 -92 20q-148 0 -148 -69q0 -31 38.5 -49.5t100 -28.5t136 -20t149.5 -31t136.5 -54.5t100 -97.5t38.5 -154q0 -87 -30 -154t-80.5 -109.5t-123.5 -70
t-152.5 -38.5t-172.5 -11q-106 0 -202 21.5t-177 65t-129.5 118.5t-48.5 172h378v-8q1 -37 20 -63t49 -38.5t57 -18t53 -5.5q170 0 170 80q0 32 -38.5 52.5t-100 31.5t-136 22.5t-149.5 33t-136.5 55t-100 96t-38.5 149.5q0 83 29.5 147.5t79 105t120.5 67t147.5 37
t166.5 10.5z" />
    <glyph glyph-name="Scircumflex" unicode="&#x15c;" horiz-adv-x="1478" 
d="M1155 1516h-264l-154 157l-151 -157h-262l284 296h262zM743 1434q130 0 240.5 -26t196 -78t135 -136.5t51.5 -194.5v-24h-424v8q0 61 -45 102t-137 41q-89 0 -138 -26.5t-49 -65.5q0 -33 28 -57.5t76 -39.5t109.5 -27.5t130 -27t137 -33.5t131 -50.5t111 -73.5t78 -108
t31.5 -150q0 -103 -31 -185.5t-85.5 -139t-133 -94.5t-171 -55.5t-200.5 -17.5q-125 0 -224.5 13.5t-190 48t-151 90.5t-95.5 144.5t-35 205.5h428q0 -106 55.5 -142t171.5 -36q39 0 67 2.5t62 11t52 29t18 51.5q0 32 -28.5 55.5t-76.5 38t-110.5 27.5t-131.5 28.5
t-137.5 35.5t-131 53.5t-110.5 78.5t-76.5 115t-28.5 158q0 119 51 208t140.5 141t200 77t240.5 25z" />
    <glyph glyph-name="scircumflex" unicode="&#x15d;" horiz-adv-x="1251" 
d="M1042 1188h-266l-151 158l-154 -158h-260l285 297h262zM637 1106q101 0 190 -19t164.5 -58.5t119.5 -109t44 -161.5h-379q0 60 -53 84q-36 20 -92 20q-148 0 -148 -69q0 -31 38.5 -49.5t100 -28.5t136 -20t149.5 -31t136.5 -54.5t100 -97.5t38.5 -154q0 -87 -30 -154
t-80.5 -109.5t-123.5 -70t-152.5 -38.5t-172.5 -11q-106 0 -202 21.5t-177 65t-129.5 118.5t-48.5 172h378v-8q1 -37 20 -63t49 -38.5t57 -18t53 -5.5q170 0 170 80q0 32 -38.5 52.5t-100 31.5t-136 22.5t-149.5 33t-136.5 55t-100 96t-38.5 149.5q0 83 29.5 147.5t79 105
t120.5 67t147.5 37t166.5 10.5z" />
    <glyph glyph-name="Scedilla" unicode="&#x15e;" horiz-adv-x="1478" 
d="M743 1434q130 0 240.5 -26t196 -78t135 -136.5t51.5 -194.5v-24h-424v8q0 61 -45 102t-137 41q-89 0 -138 -26.5t-49 -65.5q0 -33 28 -57.5t76 -39.5t109.5 -27.5t130 -27t137 -33.5t131 -50.5t111 -73.5t78 -108t31.5 -150q0 -125 -45 -220t-126.5 -153t-189 -87.5
t-239.5 -31.5l-4 -34q83 -8 135.5 -51.5t52.5 -131.5q0 -55 -23.5 -95t-62 -59t-76.5 -27.5t-79 -8.5q-158 0 -259 33v110q134 -16 240 -16q82 0 82 63q0 66 -78 66h-78l25 153q-107 6 -193.5 24t-162.5 55t-127 92.5t-80 138.5t-29 190h428q0 -106 55.5 -142t171.5 -36
q39 0 67 2.5t62 11t52 29t18 51.5q0 32 -28.5 55.5t-76.5 38t-110.5 27.5t-131.5 28.5t-137.5 35.5t-131 53.5t-110.5 78.5t-76.5 115t-28.5 158q0 119 51 208t140.5 141t200 77t240.5 25z" />
    <glyph glyph-name="scedilla" unicode="&#x15f;" horiz-adv-x="1251" 
d="M637 1106q101 0 190 -19t164.5 -58.5t119.5 -109t44 -161.5h-379q0 60 -53 84q-36 20 -92 20q-148 0 -148 -69q0 -31 38.5 -49.5t100 -28.5t136 -20t149.5 -31t136.5 -54.5t100 -97.5t38.5 -154q0 -99 -38.5 -172.5t-108 -116.5t-154.5 -65t-191 -27l-4 -36
q85 -8 138 -51.5t53 -131.5q0 -55 -24 -95t-63 -59t-77 -27.5t-78 -8.5q-161 0 -258 33v110q133 -16 239 -16q82 0 82 63q0 33 -17.5 49.5t-59.5 16.5h-78l22 153q-99 5 -185 29.5t-158 68t-114 115t-42 162.5h378v-8q1 -37 20 -63t49 -38.5t57 -18t53 -5.5q170 0 170 80
q0 32 -38.5 52.5t-100 31.5t-136 22.5t-149.5 33t-136.5 55t-100 96t-38.5 149.5q0 83 29.5 147.5t79 105t120.5 67t147.5 37t166.5 10.5z" />
    <glyph glyph-name="Scaron" unicode="&#x160;" horiz-adv-x="1478" 
d="M870 1516h-262l-284 296h262l151 -157l154 157h264zM743 1434q130 0 240.5 -26t196 -78t135 -136.5t51.5 -194.5v-24h-424v8q0 61 -45 102t-137 41q-89 0 -138 -26.5t-49 -65.5q0 -33 28 -57.5t76 -39.5t109.5 -27.5t130 -27t137 -33.5t131 -50.5t111 -73.5t78 -108
t31.5 -150q0 -103 -31 -185.5t-85.5 -139t-133 -94.5t-171 -55.5t-200.5 -17.5q-125 0 -224.5 13.5t-190 48t-151 90.5t-95.5 144.5t-35 205.5h428q0 -106 55.5 -142t171.5 -36q39 0 67 2.5t62 11t52 29t18 51.5q0 32 -28.5 55.5t-76.5 38t-110.5 27.5t-131.5 28.5
t-137.5 35.5t-131 53.5t-110.5 78.5t-76.5 115t-28.5 158q0 119 51 208t140.5 141t200 77t240.5 25z" />
    <glyph glyph-name="scaron" unicode="&#x161;" horiz-adv-x="1251" 
d="M758 1188h-262l-285 297h260l154 -158l151 158h266zM637 1106q101 0 190 -19t164.5 -58.5t119.5 -109t44 -161.5h-379q0 60 -53 84q-36 20 -92 20q-148 0 -148 -69q0 -31 38.5 -49.5t100 -28.5t136 -20t149.5 -31t136.5 -54.5t100 -97.5t38.5 -154q0 -87 -30 -154
t-80.5 -109.5t-123.5 -70t-152.5 -38.5t-172.5 -11q-106 0 -202 21.5t-177 65t-129.5 118.5t-48.5 172h378v-8q1 -37 20 -63t49 -38.5t57 -18t53 -5.5q170 0 170 80q0 32 -38.5 52.5t-100 31.5t-136 22.5t-149.5 33t-136.5 55t-100 96t-38.5 149.5q0 83 29.5 147.5t79 105
t120.5 67t147.5 37t166.5 10.5z" />
    <glyph glyph-name="uni0162" unicode="&#x162;" horiz-adv-x="1478" 
d="M963 0h-154l-10 -59q190 -19 190 -183q0 -45 -16.5 -79.5t-41 -55t-58 -33.5t-64 -17.5t-61.5 -4.5q-162 0 -259 33v110q134 -16 240 -16q82 0 82 63q0 66 -78 66h-78l27 176h-172v1049h-463v360h1376v-360h-460v-1049z" />
    <glyph glyph-name="uni0163" unicode="&#x163;" horiz-adv-x="909" 
d="M844 805h-230v-412q0 -73 24.5 -107t90.5 -34h115v-240q-48 -16 -126 -26.5t-136 -10.5q-42 0 -62 2l-6 -36q85 -8 138 -51.5t53 -131.5q0 -55 -24 -95t-63 -59t-77 -27.5t-78 -8.5q-161 0 -258 33v110q133 -16 239 -16q82 0 82 63q0 33 -17.5 49.5t-59.5 16.5h-78
l26 174q-190 57 -190 266v541h-152v276h168l88 328h303v-328h230v-276z" />
    <glyph glyph-name="Tcaron" unicode="&#x164;" horiz-adv-x="1478" 
d="M870 1516h-262l-284 296h262l151 -157l154 157h264zM1423 1049h-460v-1049h-453v1049h-463v360h1376v-360z" />
    <glyph glyph-name="tcaron" unicode="&#x165;" horiz-adv-x="1280" 
d="M614 1081h230v-276h-230v-412q0 -73 24.5 -107t90.5 -34h115v-240q-48 -16 -126 -26.5t-136 -10.5q-87 0 -152.5 14.5t-117 47t-78.5 89.5t-27 138v541h-152v276h168l88 328h303v-328zM1194 1186l-111 -203h-137l84 188h-100v238h264v-223z" />
    <glyph glyph-name="Tbar" unicode="&#x166;" horiz-adv-x="1478" 
d="M1294 551h-331v-551h-453v551h-334v205h334v293h-463v360h1376v-360h-460v-293h331v-205z" />
    <glyph glyph-name="tbar" unicode="&#x167;" horiz-adv-x="909" 
d="M614 1081h230v-276h-230v-170h187v-207h-187v-35q0 -73 24.5 -107t90.5 -34h115v-240q-48 -16 -126 -26.5t-136 -10.5q-87 0 -152.5 14.5t-117 47t-78.5 89.5t-27 138v164h-144v207h144v170h-152v276h168l88 328h303v-328z" />
    <glyph glyph-name="Utilde" unicode="&#x168;" horiz-adv-x="1705" 
d="M1309 1812q0 -115 -81.5 -203.5t-205.5 -88.5q-68 0 -185 41t-169 41q-38 0 -65 -22.5t-40 -59.5h-166q0 115 81.5 203.5t205.5 88.5q68 0 185 -40.5t169 -40.5q77 0 105 81h166zM1554 567q0 -289 -182.5 -440.5t-517.5 -151.5t-518.5 151.5t-183.5 440.5v842h452v-836
q0 -118 63.5 -189t184.5 -71t185.5 71t64.5 189v836h452v-842z" />
    <glyph glyph-name="utilde" unicode="&#x169;" 
d="M1139 1485q0 -115 -81.5 -204t-205.5 -89q-68 0 -185 41t-169 41q-38 0 -65 -22.5t-40 -59.5h-166q0 115 81.5 204t205.5 89q68 0 185 -41t169 -41q38 0 65 22.5t40 59.5h166zM1241 0h-334l-26 164q-63 -88 -166 -138.5t-219 -50.5q-189 0 -283 105t-94 301v700h407v-651
q0 -69 36 -111.5t102 -42.5q75 0 122.5 49.5t47.5 120.5v635h407v-1081z" />
    <glyph glyph-name="Umacron" unicode="&#x16a;" horiz-adv-x="1705" 
d="M1178 1567h-650v205h650v-205zM1554 567q0 -289 -182.5 -440.5t-517.5 -151.5t-518.5 151.5t-183.5 440.5v842h452v-836q0 -118 63.5 -189t184.5 -71t185.5 71t64.5 189v836h452v-842z" />
    <glyph glyph-name="umacron" unicode="&#x16b;" 
d="M1008 1239h-650v205h650v-205zM1241 0h-334l-26 164q-63 -88 -166 -138.5t-219 -50.5q-189 0 -283 105t-94 301v700h407v-651q0 -69 36 -111.5t102 -42.5q75 0 122.5 49.5t47.5 120.5v635h407v-1081z" />
    <glyph glyph-name="Ubreve" unicode="&#x16c;" horiz-adv-x="1705" 
d="M1231 1812q0 -52 -27 -104t-74.5 -94.5t-120.5 -69t-157 -26.5q-167 0 -272 91.5t-105 202.5h197q7 -36 58.5 -69t121.5 -33q71 0 124 33t60 69h195zM1554 567q0 -289 -182.5 -440.5t-517.5 -151.5t-518.5 151.5t-183.5 440.5v842h452v-836q0 -118 63.5 -189t184.5 -71
t185.5 71t64.5 189v836h452v-842z" />
    <glyph glyph-name="ubreve" unicode="&#x16d;" 
d="M1061 1485q0 -111 -107 -203t-272 -92q-167 0 -272 92t-105 203h197q7 -37 55 -68q58 -35 125 -35q71 0 124 33.5t60 69.5h195zM1241 0h-334l-26 164q-63 -88 -166 -138.5t-219 -50.5q-189 0 -283 105t-94 301v700h407v-651q0 -69 36 -111.5t102 -42.5q75 0 122.5 49.5
t47.5 120.5v635h407v-1081z" />
    <glyph glyph-name="Uring" unicode="&#x16e;" horiz-adv-x="1705" 
d="M854 1954q91 0 156 -65t65 -158q0 -91 -64.5 -156.5t-156.5 -65.5t-157.5 65t-65.5 157q0 93 65 158t158 65zM854 1812q-37 0 -60.5 -23t-23.5 -60q0 -35 24 -57.5t60 -22.5q35 0 58.5 23.5t23.5 60.5q0 35 -24 57t-58 22zM1554 567q0 -289 -182.5 -440.5t-517.5 -151.5
t-518.5 151.5t-183.5 440.5v842h452v-836q0 -118 63.5 -189t184.5 -71t185.5 71t64.5 189v836h452v-842z" />
    <glyph glyph-name="uring" unicode="&#x16f;" 
d="M682 1626q93 0 158 -65t65 -158q0 -91 -65 -156t-158 -65q-91 0 -156 64.5t-65 156.5t64.5 157.5t156.5 65.5zM682 1485q-35 0 -58.5 -23.5t-23.5 -60.5q0 -35 24 -57.5t58 -22.5q37 0 60.5 23.5t23.5 60.5q0 35 -24 57.5t-60 22.5zM1241 0h-334l-26 164
q-63 -88 -166 -138.5t-219 -50.5q-189 0 -283 105t-94 301v700h407v-651q0 -69 36 -111.5t102 -42.5q75 0 122.5 49.5t47.5 120.5v635h407v-1081z" />
    <glyph glyph-name="Uhungarumlaut" unicode="&#x170;" horiz-adv-x="1705" 
d="M1028 1806l-285 -266h-239l155 275h365zM1460 1806l-284 -266h-240l156 275h364zM1554 567q0 -289 -182.5 -440.5t-517.5 -151.5t-518.5 151.5t-183.5 440.5v842h452v-836q0 -118 63.5 -189t184.5 -71t185.5 71t64.5 189v836h452v-842z" />
    <glyph glyph-name="uhungarumlaut" unicode="&#x171;" 
d="M842 1477l-285 -267h-240l156 275h365zM1274 1477l-285 -267h-239l155 275h365zM1241 0h-334l-26 164q-63 -88 -166 -138.5t-219 -50.5q-189 0 -283 105t-94 301v700h407v-651q0 -69 36 -111.5t102 -42.5q75 0 122.5 49.5t47.5 120.5v635h407v-1081z" />
    <glyph glyph-name="Uogonek" unicode="&#x172;" horiz-adv-x="1705" 
d="M1554 567q0 -216 -103.5 -355.5t-297.5 -197.5q-39 -81 -39 -155q0 -45 29.5 -75t93.5 -30h86v-155q-98 -31 -197 -31q-51 0 -96 13t-82 40t-58.5 73t-21.5 107q0 92 66 176q-27 -2 -80 -2q-335 0 -518.5 151.5t-183.5 440.5v842h452v-836q0 -118 63.5 -189t184.5 -71
t185.5 71t64.5 189v836h452v-842z" />
    <glyph glyph-name="uogonek" unicode="&#x173;" 
d="M1241 0h-188q-33 -78 -33 -141q0 -45 29.5 -75t93.5 -30h86v-155q-98 -31 -197 -31q-51 0 -96 13t-82 40t-58.5 73t-21.5 107q0 36 8.5 67.5t26.5 62t30.5 47.5t37.5 47h26l-22 139q-63 -88 -166 -138.5t-219 -50.5q-189 0 -283 105t-94 301v700h407v-651
q0 -69 36 -111.5t102 -42.5q75 0 122.5 49.5t47.5 120.5v635h407v-1081z" />
    <glyph glyph-name="Wcircumflex" unicode="&#x174;" horiz-adv-x="2048" 
d="M1440 1516h-266l-152 157l-152 -157h-262l285 296h262zM1708 0h-498l-182 858h-8l-182 -858h-498l-330 1409h471l162 -799h8l160 799h446l170 -799h9l151 799h451z" />
    <glyph glyph-name="wcircumflex" unicode="&#x175;" horiz-adv-x="1933" 
d="M1382 1188h-266l-151 158l-152 -158h-262l285 297h262zM1536 0h-397l-168 602h-8l-170 -602h-398l-395 1081h438l164 -639h14l170 639h406l164 -639h14l166 639h397z" />
    <glyph glyph-name="Ycircumflex" unicode="&#x176;" horiz-adv-x="1593" 
d="M1212 1516h-266l-151 157l-152 -157h-262l285 296h262zM1026 547v-547h-453v547l-559 862h521l270 -469h8l270 469h494z" />
    <glyph glyph-name="ycircumflex" unicode="&#x177;" horiz-adv-x="1251" 
d="M1042 1188h-266l-151 158l-154 -158h-260l285 297h262zM866 33q-32 -86 -64.5 -151.5t-79.5 -126.5t-102.5 -100t-132 -62t-168.5 -23q-130 0 -235 37v243h164q154 0 182 150l-430 1081h438l207 -719h14l191 719h401z" />
    <glyph glyph-name="Ydieresis" unicode="&#x178;" horiz-adv-x="1593" 
d="M727 1528h-311v284h311v-284zM1178 1528h-312v284h312v-284zM1026 547v-547h-453v547l-559 862h521l270 -469h8l270 469h494z" />
    <glyph glyph-name="Zacute" unicode="&#x179;" horiz-adv-x="1478" 
d="M805 1540h-262l188 272h395l4 -8zM745 338h670v-338h-1366v145l653 926h-604v338h1301v-145z" />
    <glyph glyph-name="zacute" unicode="&#x17a;" horiz-adv-x="1138" 
d="M635 1212h-262l188 273h395l5 -8zM618 276h478v-276h-1055v133l455 672h-430v276h1011v-127z" />
    <glyph glyph-name="Zdotaccent" unicode="&#x17b;" horiz-adv-x="1478" 
d="M895 1528h-311v284h311v-284zM1399 1264l-654 -926h670v-338h-1366v145l653 926h-604v338h1301v-145z" />
    <glyph glyph-name="zdotaccent" unicode="&#x17c;" horiz-adv-x="1138" 
d="M725 1200h-311v285h311v-285zM1077 954l-459 -678h478v-276h-1055v133l455 672h-430v276h1011v-127z" />
    <glyph glyph-name="Zcaron" unicode="&#x17d;" horiz-adv-x="1478" 
d="M870 1516h-262l-284 296h262l151 -157l154 157h264zM1399 1264l-654 -926h670v-338h-1366v145l653 926h-604v338h1301v-145z" />
    <glyph glyph-name="zcaron" unicode="&#x17e;" horiz-adv-x="1138" 
d="M700 1188h-262l-284 297h262l151 -158l154 158h264zM1077 954l-459 -678h478v-276h-1055v133l455 672h-430v276h1011v-127z" />
    <glyph glyph-name="longs" unicode="&#x17f;" horiz-adv-x="798" 
d="M563 1509q46 0 113.5 -10.5t107.5 -25.5v-240h-94q-66 0 -90.5 -25t-24.5 -84v-1124h-407v805h-152v276h152v45q0 108 28.5 184t82.5 118.5t123 61.5t161 19z" />
    <glyph glyph-name="florin" unicode="&#x192;" 
d="M1083 1509q46 0 111 -10.5t102 -25.5l-51 -240h-94q-65 0 -95 -25t-42 -84l-27 -123h209l-59 -276h-209l-164 -772q-23 -108 -67.5 -184t-108 -118.5t-136.5 -61.5t-165 -19q-45 0 -110 11t-103 26l51 239h94q65 0 95 25t42 84l164 770h-151l59 276h152l26 125
q23 108 67.5 184t108 118.5t136.5 61.5t165 19z" />
    <glyph glyph-name="Aringacute" unicode="&#x1fa;" horiz-adv-x="1593" 
d="M1192 1952l-274 -207h-261l158 215h373zM1575 0h-479l-60 199h-493l-60 -199h-463l515 1409h55q-15 37 -15 82q0 96 63.5 149.5t160.5 53.5q96 0 159.5 -53t63.5 -150q0 -42 -16 -82h55zM799 1573q-37 0 -59.5 -23.5t-22.5 -60.5q0 -35 23.5 -57.5t58.5 -22.5
q37 0 59.5 23.5t22.5 60.5q0 35 -23.5 57.5t-58.5 22.5zM786 1016l-149 -502h305l-147 502h-9z" />
    <glyph glyph-name="aringacute" unicode="&#x1fb;" 
d="M1075 1808l-272 -204h-260l157 213h371zM682 1552q97 0 160 -52.5t63 -149.5q0 -95 -62.5 -148t-160.5 -53q-95 0 -158 52.5t-63 148.5t62.5 149t158.5 53zM682 1432q-35 0 -58.5 -23.5t-23.5 -60.5q0 -35 24 -57.5t58 -22.5q37 0 60.5 23.5t23.5 60.5q0 35 -24 57.5
t-60 22.5zM657 1106q117 0 213.5 -18t176.5 -57.5t125 -110t45 -166.5v-422q0 -36 16.5 -58t48.5 -22h74v-236q-9 -5 -25 -11.5t-71.5 -18t-116.5 -11.5q-120 0 -196 36t-105 100q-170 -136 -400 -136q-381 0 -381 304q0 96 33.5 164.5t92.5 111t156 67t205.5 33.5t260.5 9
v53q0 63 -44 96t-114 33q-63 0 -109 -22.5t-46 -71.5v-9h-402q-2 10 -2 29q0 153 146.5 243.5t418.5 90.5zM809 471q-173 0 -256.5 -37.5t-83.5 -101.5q0 -103 139 -103q80 0 140.5 43t60.5 107v92z" />
    <glyph glyph-name="AEacute" unicode="&#x1fc;" horiz-adv-x="2048" 
d="M1225 1540h-260l188 272h395l4 -8zM981 199h-479l-70 -199h-463l596 1409h1391v-338h-748l45 -194h588v-324h-512l49 -215h592v-338h-944zM614 514h297l-110 502h-8z" />
    <glyph glyph-name="aeacute" unicode="&#x1fd;" horiz-adv-x="2048" 
d="M1112 1212h-260l188 273h396l4 -8zM1421 1106q570 0 570 -565v-70h-770q0 -116 46.5 -175.5t149.5 -59.5q93 0 135.5 43t42.5 114h396q0 -197 -139.5 -307.5t-405.5 -110.5q-319 0 -479 150q-200 -150 -443 -150q-112 0 -193.5 16t-144 52t-94 100t-31.5 156
q0 65 17 116.5t48 89.5t80.5 66t108 45.5t138.5 28.5t164.5 15t191.5 4v53q0 63 -42 96t-108 33q-67 0 -115 -22.5t-48 -71.5v-9h-402q-2 10 -2 29q0 153 146.5 243.5t418.5 90.5q265 0 404 -98q146 98 360 98zM1409 846q-167 0 -186 -182h356q0 85 -44.5 133.5t-125.5 48.5
zM809 471q-173 0 -256.5 -37.5t-83.5 -101.5q0 -103 139 -103q80 0 140.5 43t60.5 107v92z" />
    <glyph glyph-name="Oslashacute" unicode="&#x1fe;" horiz-adv-x="1705" 
d="M918 1540h-263l191 272h393l4 -8zM1407 1253q207 -186 207 -548q0 -357 -198.5 -543.5t-563.5 -186.5q-246 0 -414 82l-106 -131h-221l184 230q-203 188 -203 549q0 357 197.5 543t562.5 186q238 0 414 -84l108 135h221zM852 1096q-145 0 -221 -88t-76 -238v-131
q0 -80 20 -139l447 551q-70 45 -170 45zM682 358q70 -45 170 -45q145 0 222 88.5t77 237.5v131q0 72 -23 139z" />
    <glyph glyph-name="oslashacute" unicode="&#x1ff;" 
d="M748 1212h-261l189 273h395l4 -8zM1128 963q164 -148 164 -422q0 -278 -163 -422t-447 -144q-170 0 -303 54l-96 -121h-189l158 196q-178 148 -178 437q0 278 162 421.5t446 143.5q188 0 322 -64l81 103h189zM682 829q-201 0 -201 -231v-117q0 -45 6 -82l318 398
q-50 32 -123 32zM575 274q46 -22 107 -22q203 0 203 229v117q0 21 -4 57z" />
    <glyph glyph-name="Scommaaccent" unicode="&#x218;" horiz-adv-x="1478" 
d="M743 1434q130 0 240.5 -26t196 -78t135 -136.5t51.5 -194.5v-24h-424v8q0 61 -45 102t-137 41q-89 0 -138 -26.5t-49 -65.5q0 -33 28 -57.5t76 -39.5t109.5 -27.5t130 -27t137 -33.5t131 -50.5t111 -73.5t78 -108t31.5 -150q0 -103 -31 -185.5t-85.5 -139t-133 -94.5
t-171 -55.5t-200.5 -17.5q-125 0 -224.5 13.5t-190 48t-151 90.5t-95.5 144.5t-35 205.5h428q0 -106 55.5 -142t171.5 -36q39 0 67 2.5t62 11t52 29t18 51.5q0 32 -28.5 55.5t-76.5 38t-110.5 27.5t-131.5 28.5t-137.5 35.5t-131 53.5t-110.5 78.5t-76.5 115t-28.5 158
q0 119 51 208t140.5 141t200 77t240.5 25zM872 -344l-110 -203h-137l84 189h-103v237h266v-223z" />
    <glyph glyph-name="scommaaccent" unicode="&#x219;" horiz-adv-x="1251" 
d="M637 1106q101 0 190 -19t164.5 -58.5t119.5 -109t44 -161.5h-379q0 60 -53 84q-36 20 -92 20q-148 0 -148 -69q0 -31 38.5 -49.5t100 -28.5t136 -20t149.5 -31t136.5 -54.5t100 -97.5t38.5 -154q0 -87 -30 -154t-80.5 -109.5t-123.5 -70t-152.5 -38.5t-172.5 -11
q-106 0 -202 21.5t-177 65t-129.5 118.5t-48.5 172h378v-8q1 -37 20 -63t49 -38.5t57 -18t53 -5.5q170 0 170 80q0 32 -38.5 52.5t-100 31.5t-136 22.5t-149.5 33t-136.5 55t-100 96t-38.5 149.5q0 83 29.5 147.5t79 105t120.5 67t147.5 37t166.5 10.5zM760 -344l-111 -203
h-137l84 189h-102v237h266v-223z" />
    <glyph glyph-name="uni021A" unicode="&#x21a;" horiz-adv-x="1478" 
d="M1423 1049h-460v-1049h-453v1049h-463v360h1376v-360zM872 -344l-110 -203h-137l84 189h-103v237h266v-223z" />
    <glyph glyph-name="uni021B" unicode="&#x21b;" horiz-adv-x="909" 
d="M614 1081h230v-276h-230v-412q0 -73 24.5 -107t90.5 -34h115v-240q-48 -16 -126 -26.5t-136 -10.5q-87 0 -152.5 14.5t-117 47t-78.5 89.5t-27 138v541h-152v276h168l88 328h303v-328zM678 -344l-113 -203h-137l84 189h-100v237h266v-223z" />
    <glyph glyph-name="circumflex" unicode="&#x2c6;" horiz-adv-x="681" 
d="M760 1188h-266l-152 158l-152 -158h-262l285 297h262z" />
    <glyph glyph-name="caron" unicode="&#x2c7;" horiz-adv-x="681" 
d="M475 1188h-262l-285 297h262l152 -158l152 158h266z" />
    <glyph glyph-name="uni02C9" unicode="&#x2c9;" horiz-adv-x="1024" 
d="M1024 1597h-1024v127h1024v-127z" />
    <glyph glyph-name="breve" unicode="&#x2d8;" horiz-adv-x="681" 
d="M719 1485q0 -111 -107 -203t-272 -92q-167 0 -272 92t-105 203h197q7 -37 55 -68q58 -35 125 -35q71 0 124 33.5t60 69.5h195z" />
    <glyph glyph-name="dotaccent" unicode="&#x2d9;" horiz-adv-x="681" 
d="M498 1200h-312v285h312v-285z" />
    <glyph glyph-name="ring" unicode="&#x2da;" horiz-adv-x="681" 
d="M342 1626q91 0 157 -65t66 -158q0 -91 -65.5 -156t-157.5 -65q-91 0 -157 64.5t-66 156.5t65.5 157.5t157.5 65.5zM342 1485q-37 0 -59.5 -23.5t-22.5 -60.5q0 -35 23.5 -57.5t58.5 -22.5q37 0 59.5 23.5t22.5 60.5q0 35 -23.5 57.5t-58.5 22.5z" />
    <glyph glyph-name="ogonek" unicode="&#x2db;" horiz-adv-x="681" 
d="M434 16q-15 -27 -28 -71.5t-13 -85.5q0 -45 29.5 -75t93.5 -30h86v-155q-98 -31 -196 -31q-51 0 -96 13t-82.5 40t-59 73t-21.5 107q0 36 8.5 67.5t26.5 62t30.5 47.5t37.5 47h184v-9z" />
    <glyph glyph-name="tilde" unicode="&#x2dc;" horiz-adv-x="681" 
d="M795 1485q0 -115 -81.5 -204t-205.5 -89q-68 0 -184.5 41t-169.5 41q-37 0 -64.5 -23t-38.5 -59h-166q0 115 81.5 204t205.5 89q68 0 184.5 -41t169.5 -41q37 0 64.5 23t38.5 59h166z" />
    <glyph glyph-name="hungarumlaut" unicode="&#x2dd;" horiz-adv-x="681" 
d="M498 1477l-285 -267h-240l156 275h365zM930 1477l-285 -267h-239l155 275h365z" />
    <glyph glyph-name="uni0326" unicode="&#x326;" horiz-adv-x="0" 
d="M-209 -344l-110 -203h-138l84 189h-102v237h266v-223z" />
    <glyph glyph-name="Delta" unicode="&#x394;" horiz-adv-x="1593" 
d="M53 143l479 1266h535l481 -1266v-143h-1495v143zM549 313h475l-227 760h-9z" />
    <glyph glyph-name="Omega" unicode="&#x3a9;" horiz-adv-x="1748" 
d="M874 1434q354 0 558 -173t204 -470q0 -287 -219 -492l246 41h25v-340h-689v301q86 33 131.5 113t45.5 192v164q0 149 -78 237.5t-224 88.5q-144 0 -219 -88t-75 -238v-164q0 -113 43 -191.5t129 -113.5v-301h-689v340h23l246 -41q-215 205 -215 492q0 297 202.5 470
t554.5 173z" />
    <glyph glyph-name="mu" unicode="&#x3bc;" 
d="M1241 0h-334l-26 164q-60 -82 -154.5 -131.5t-200.5 -55.5v-378h-407v1482h407v-651q0 -69 36 -111.5t102 -42.5q75 0 122.5 49.5t47.5 120.5v635h407v-1081z" />
    <glyph glyph-name="pi" unicode="&#x3c0;" horiz-adv-x="1447" 
d="M1364 825h-150v-487q0 -207 27 -338h-358q-39 52 -39 313v512h-189q-7 -202 -43.5 -456.5t-85.5 -368.5h-360q50 159 88.5 409.5t38.5 415.5q-138 0 -217 -20l-31 203q79 73 404 73h942z" />
    <glyph glyph-name="Wgrave" unicode="&#x1e80;" horiz-adv-x="2048" 
d="M961 1540l-328 264l4 8h395l189 -272h-260zM1210 0l-182 858h-8l-182 -858h-498l-330 1409h471l162 -799h8l160 799h446l170 -799h9l151 799h451l-330 -1409h-498z" />
    <glyph glyph-name="wgrave" unicode="&#x1e81;" horiz-adv-x="1933" 
d="M903 1212l-328 265l5 8h395l188 -273h-260zM1139 0l-168 602h-8l-170 -602h-398l-395 1081h438l164 -639h14l170 639h406l164 -639h14l166 639h397l-397 -1081h-397z" />
    <glyph glyph-name="Wacute" unicode="&#x1e82;" horiz-adv-x="2048" 
d="M1087 1540h-260l189 272h395l4 -8zM1210 0l-182 858h-8l-182 -858h-498l-330 1409h471l162 -799h8l160 799h446l170 -799h9l151 799h451l-330 -1409h-498z" />
    <glyph glyph-name="wacute" unicode="&#x1e83;" horiz-adv-x="1933" 
d="M1030 1212h-260l188 273h396l4 -8zM1139 0l-168 602h-8l-170 -602h-398l-395 1081h438l164 -639h14l170 639h406l164 -639h14l166 639h397l-397 -1081h-397z" />
    <glyph glyph-name="Wdieresis" unicode="&#x1e84;" horiz-adv-x="2048" 
d="M954 1528h-311v284h311v-284zM1405 1528h-311v284h311v-284zM1708 0h-498l-182 858h-8l-182 -858h-498l-330 1409h471l162 -799h8l160 799h446l170 -799h9l151 799h451z" />
    <glyph glyph-name="wdieresis" unicode="&#x1e85;" horiz-adv-x="1933" 
d="M897 1200h-311v285h311v-285zM1348 1200h-312v285h312v-285zM1536 0h-397l-168 602h-8l-170 -602h-398l-395 1081h438l164 -639h14l170 639h406l164 -639h14l166 639h397z" />
    <glyph glyph-name="Ygrave" unicode="&#x1ef2;" horiz-adv-x="1593" 
d="M733 1540l-327 264l4 8h395l188 -272h-260zM1026 0h-453v547l-559 862h521l270 -469h8l270 469h494l-551 -862v-547z" />
    <glyph glyph-name="ygrave" unicode="&#x1ef3;" horiz-adv-x="1251" 
d="M563 1212l-327 265l4 8h395l188 -273h-260zM866 33q-32 -86 -64.5 -151.5t-79.5 -126.5t-102.5 -100t-132 -62t-168.5 -23q-130 0 -235 37v243h164q154 0 182 150l-430 1081h438l207 -719h14l191 719h401z" />
    <glyph glyph-name="endash" unicode="&#x2013;" horiz-adv-x="1024" 
d="M1024 401h-1024v283h1024v-283z" />
    <glyph glyph-name="emdash" unicode="&#x2014;" horiz-adv-x="2048" 
d="M2052 401h-2052v283h2052v-283z" />
    <glyph glyph-name="uni2015" unicode="&#x2015;" horiz-adv-x="1536" 
d="M1538 401h-1538v283h1538v-283z" />
    <glyph glyph-name="underscoredbl" unicode="&#x2017;" horiz-adv-x="1024" 
d="M1026 -258h-1024v127h1024v-127zM1024 -453h-1024v127h1024v-127z" />
    <glyph glyph-name="quoteleft" unicode="&#x2018;" horiz-adv-x="569" 
d="M326 1036h145v-358h-381v338l186 393h195z" />
    <glyph glyph-name="quoteright" unicode="&#x2019;" horiz-adv-x="569" 
d="M479 1071l-186 -393h-195l146 373h-146v358h381v-338z" />
    <glyph glyph-name="quotesinglbase" unicode="&#x201a;" horiz-adv-x="569" 
d="M471 20l-186 -393h-195l146 373h-146v358h381v-338z" />
    <glyph glyph-name="quotereversed" unicode="&#x201b;" horiz-adv-x="569" 
d="M471 1051h-145l145 -373h-195l-186 393v338h381v-358z" />
    <glyph glyph-name="quotedblleft" unicode="&#x201c;" horiz-adv-x="1024" 
d="M319 1036h146v-358h-381v338l186 393h195zM788 1036h146v-358h-381v338l186 393h195z" />
    <glyph glyph-name="quotedblright" unicode="&#x201d;" horiz-adv-x="1024" 
d="M471 1071l-186 -393h-195l146 373h-146v358h381v-338zM940 1071l-186 -393h-195l146 373h-146v358h381v-338z" />
    <glyph glyph-name="quotedblbase" unicode="&#x201e;" horiz-adv-x="1024" 
d="M471 20l-186 -393h-195l146 373h-146v358h381v-338zM940 20l-186 -393h-195l146 373h-146v358h381v-338z" />
    <glyph glyph-name="dagger" unicode="&#x2020;" 
d="M799 995l438 43v-301l-438 43l41 -1159h-301l41 1159l-439 -43v301l439 -43l-41 414h301z" />
    <glyph glyph-name="daggerdbl" unicode="&#x2021;" 
d="M799 995l438 43v-301l-438 43l41 -276l-41 -281l438 43v-301l-438 43l41 -416h-301l41 416l-439 -43v301l439 -43l-41 281l41 276l-439 -43v301l439 -43l-41 414h301z" />
    <glyph glyph-name="bullet" unicode="&#x2022;" horiz-adv-x="1024" 
d="M512 1038q137 0 234.5 -97.5t97.5 -233.5q0 -137 -98 -234.5t-234 -97.5t-234 97.5t-98 234.5q0 136 97.5 233.5t234.5 97.5z" />
    <glyph glyph-name="ellipsis" unicode="&#x2026;" horiz-adv-x="2048" 
d="M559 0h-434v408h434v-408zM1241 0h-434v408h434v-408zM1925 0h-434v408h434v-408z" />
    <glyph glyph-name="perthousand" unicode="&#x2030;" horiz-adv-x="2048" 
d="M301 1434q167 0 234 -94.5t67 -272.5t-67 -272.5t-234 -94.5q-85 0 -145 26t-93.5 76t-48 114.5t-14.5 150.5t14.5 150.5t48 114.5t93.5 76t145 26zM518 0h-176l512 1409h178zM301 1294q-54 0 -76 -40.5t-22 -135.5v-102q0 -95 22 -135.5t76 -40.5q53 0 74.5 40.5
t21.5 135.5v102q0 95 -21.5 135.5t-74.5 40.5zM1069 709q167 0 234 -94.5t67 -272.5t-67 -272.5t-234 -94.5q-85 0 -145 26t-93.5 76t-48 114.5t-14.5 150.5t14.5 150.5t48 114.5t93.5 76t145 26zM1747 709q167 0 234 -94.5t67 -272.5t-67 -272.5t-234 -94.5q-85 0 -145 26
t-93.5 76t-48 114.5t-14.5 150.5t14.5 150.5t48 114.5t93.5 76t145 26zM1069 569q-54 0 -76 -40.5t-22 -135.5v-102q0 -95 22 -135.5t76 -40.5q53 0 74.5 40.5t21.5 135.5v102q0 95 -21.5 135.5t-74.5 40.5zM1747 569q-54 0 -76 -40.5t-22 -135.5v-102q0 -95 22 -135.5
t76 -40.5q53 0 74.5 40.5t21.5 135.5v102q0 95 -21.5 135.5t-74.5 40.5z" />
    <glyph glyph-name="minute" unicode="&#x2032;" horiz-adv-x="622" 
d="M522 1477l-162 -430h-239l33 438h364z" />
    <glyph glyph-name="second" unicode="&#x2033;" horiz-adv-x="1073" 
d="M522 1477l-162 -430h-239l33 438h364zM954 1477l-161 -430h-240l33 438h364z" />
    <glyph glyph-name="guilsinglleft" unicode="&#x2039;" horiz-adv-x="681" 
d="M375 664l282 -420h-292l-342 420l342 417h292z" />
    <glyph glyph-name="guilsinglright" unicode="&#x203a;" horiz-adv-x="681" 
d="M25 1081h292l342 -417l-342 -420h-292l282 420z" />
    <glyph glyph-name="exclamdbl" unicode="&#x203c;" horiz-adv-x="1236" 
d="M469 504h-260l-113 905h490zM1032 504h-260l-113 905h490zM543 0h-406v379h406v-379zM1106 0h-406v379h406v-379z" />
    <glyph glyph-name="uni203E" unicode="&#x203e;" horiz-adv-x="1024" 
d="M1026 1597h-1024v127h1024v-127z" />
    <glyph glyph-name="fraction" unicode="&#x2044;" horiz-adv-x="342" 
d="M-170 -25h-195l840 1459h197z" />
    <glyph glyph-name="uni207F" unicode="&#x207f;" horiz-adv-x="892" 
d="M575 1507q124 0 185 -62.5t61 -180.5v-420h-266v391q0 41 -23.5 66.5t-66.5 25.5q-48 0 -79.5 -30t-31.5 -72v-381h-266v649h217l19 -98q42 51 109 81.5t142 30.5z" />
    <glyph glyph-name="franc" unicode="&#x20a3;" horiz-adv-x="1705" 
d="M1696 567h-131q-128 0 -184 -66t-56 -194v-307h-407v506h-314v-506h-452v1409h1101v-338h-649v-242h314v78h333l27 -164q37 94 116.5 142.5t180.5 48.5q34 0 64 -6t43 -12l14 -7v-342z" />
    <glyph glyph-name="lira" unicode="&#x20a4;" 
d="M780 1434q250 0 388.5 -119.5t138.5 -302.5v-49h-408v49q0 49 -34.5 83.5t-84.5 34.5t-85.5 -34.5t-35.5 -83.5v-142h240v-172h-240l-12 -88h252v-170h-276l-19 -139h592v-301h-1071v301h131v139h-193v170h193v90h-193v170h193v140q0 90 31 166t93.5 134.5t164.5 91
t235 32.5z" />
    <glyph glyph-name="peseta" unicode="&#x20a7;" horiz-adv-x="3526" 
d="M911 1409q198 0 325.5 -131t127.5 -332v-26q0 -201 -127.5 -333t-325.5 -132h-338v-455h-450v1409h788zM2013 1081h230v-276h-230v-412q0 -73 24.5 -107t90.5 -34h115v-240q-48 -16 -126.5 -26.5t-136.5 -10.5q-87 0 -152.5 14.5t-117 47t-78 89.5t-26.5 138v541h-152
v276h168l88 328h303v-328zM2945 1106q101 0 190 -19t164.5 -58.5t119.5 -109t44 -161.5h-379q0 60 -53 84q-36 20 -92 20q-148 0 -148 -69q0 -31 38.5 -49.5t100 -28.5t136 -20t149.5 -31t136.5 -54.5t100 -97.5t38.5 -154q0 -87 -30 -154t-80.5 -109.5t-123.5 -70
t-152.5 -38.5t-172.5 -11q-106 0 -202 21.5t-177 65t-129.5 118.5t-48.5 172h379v-8q1 -37 20 -63t48.5 -38.5t56.5 -18t53 -5.5q170 0 170 80q0 32 -38.5 52.5t-100 31.5t-136 22.5t-149.5 33t-136.5 55t-100 96t-38.5 149.5q0 83 29.5 147.5t79 105t120.5 67t147.5 37
t166.5 10.5zM573 1075v-291h189q69 0 105 37t36 101v16q0 65 -35.5 101t-105.5 36h-189z" />
    <glyph glyph-name="Euro" unicode="&#x20ac;" 
d="M971 1434q175 0 315 -39v-297q-12 6 -33.5 14.5t-87.5 22.5t-131 14q-131 0 -221 -53.5t-135 -151.5h428v-190h-473v-45q0 -38 2 -54h471v-190h-426q47 -98 136 -151.5t218 -53.5q65 0 128 14t94 28l30 13v-288q-166 -52 -321 -52q-68 0 -135.5 10.5t-139 32t-137 60.5
t-123 91.5t-102.5 128t-70 167.5h-211v190h184v99h-184v190h211q30 109 88 195t128.5 140.5t156.5 90t169.5 50t170.5 14.5z" />
    <glyph glyph-name="uni2105" unicode="&#x2105;" horiz-adv-x="2048" 
d="M700 -25h-194l840 1459h196zM496 1432q84 0 153.5 -17.5t124 -53t85 -95t30.5 -138.5h-260q0 63 -35 93q-32 28 -98 28q-134 0 -134 -151v-78q0 -152 140 -152q137 0 137 125h250q0 -79 -30.5 -139t-85 -96t-124 -54t-153.5 -18q-188 0 -295 95t-107 278t107 278t295 95z
M1548 721q188 0 296 -95t108 -278t-108 -278t-296 -95t-294.5 95t-106.5 278t106.5 278t294.5 95zM1548 539q-133 0 -133 -154v-76q0 -151 133 -151q135 0 135 151v76q0 154 -135 154z" />
    <glyph glyph-name="uni2113" unicode="&#x2113;" horiz-adv-x="1200" 
d="M676 1509q93 0 165 -30.5t115.5 -83.5t65.5 -120t22 -145q0 -115 -60 -230t-158 -216t-253 -225l2 -53q3 -74 51.5 -117t131.5 -43t159 48.5t136 125.5h8v-309q-165 -136 -391 -136q-198 0 -314 90.5t-116 221.5q-16 -10 -63.5 -41.5t-67.5 -44.5v235q87 58 122 84v432
q0 279 119 418t326 139zM694 1288q-50 0 -85.5 -64t-35.5 -208v-271q107 104 164.5 210t57.5 196q0 64 -25 100.5t-76 36.5z" />
    <glyph glyph-name="uni2116" unicode="&#x2116;" horiz-adv-x="2754" 
d="M2157 1434q224 0 353.5 -104.5t129.5 -303.5t-129.5 -303.5t-353.5 -104.5q-225 0 -354.5 104t-129.5 304t129.5 304t354.5 104zM1554 0h-395l-592 684v-684h-415v1409h395l592 -694v694h415v-1409zM2157 1214q-160 0 -160 -184v-10q0 -182 160 -182q159 0 159 182v10
q0 184 -159 184zM2591 295h-869v242h869v-242z" />
    <glyph glyph-name="trademark" unicode="&#x2122;" horiz-adv-x="1945" 
d="M834 1200h-267v-606h-262v606h-268v209h797v-209zM1872 594h-258v254q0 61 5.5 135.5t10.5 118.5l6 45h-8l-151 -553h-205l-152 551h-8q25 -160 25 -297v-254h-240v815h369l120 -471h11l119 471h356v-815z" />
    <glyph glyph-name="uni2126" unicode="&#x2126;" horiz-adv-x="1748" 
d="M874 1434q354 0 558 -173t204 -470q0 -287 -219 -492l246 41h25v-340h-689v301q86 33 131.5 113t45.5 192v164q0 149 -78 237.5t-224 88.5q-144 0 -219 -88t-75 -238v-164q0 -113 43 -191.5t129 -113.5v-301h-689v340h23l246 -41q-215 205 -215 492q0 297 202.5 470
t554.5 173z" />
    <glyph glyph-name="estimated" unicode="&#x212e;" horiz-adv-x="1228" 
d="M618 1106q242 0 386.5 -163.5t144.5 -422.5v-10h-836v-340q118 -109 305 -109q134 0 236.5 60t157.5 166l69 -45q-66 -126 -185.5 -196.5t-277.5 -70.5q-242 0 -385 158t-143 408t143 407.5t385 157.5zM618 1020q-184 0 -305 -111v-313h613v311q-122 113 -308 113z" />
    <glyph glyph-name="oneeighth" unicode="&#x215b;" horiz-adv-x="2048" 
d="M729 -25h-194l839 1459h197zM565 762h211v-189h-698v189h219v383h-219v141q90 6 202.5 44.5t194.5 88.5h90v-657zM1595 848q155 0 257 -66t102 -182q0 -66 -27.5 -103t-85.5 -73v-10q75 -37 111.5 -80t36.5 -113q0 -118 -106 -182t-288 -64q-183 0 -287 64t-104 182
q0 70 36 112.5t110 80.5v10q-57 37 -85 74t-28 102q0 116 101 182t257 66zM1595 682q-125 0 -125 -92q0 -48 34.5 -70t90.5 -22q55 0 91 22t36 70q0 47 -34.5 69.5t-92.5 22.5zM1595 342q-54 0 -89.5 -26t-35.5 -74q0 -50 34 -75.5t91 -25.5t92 26t35 75q0 47 -37 73.5
t-90 26.5z" />
    <glyph glyph-name="threeeighths" unicode="&#x215c;" horiz-adv-x="2048" 
d="M465 1436q166 0 262 -66t96 -164q0 -63 -37.5 -113.5t-97.5 -70.5v-8q77 -23 119.5 -77t42.5 -130q0 -107 -100 -175.5t-291 -68.5q-192 0 -292.5 68t-100.5 174v26h237q0 -100 139 -100q140 0 140 113q0 43 -26.5 65.5t-68.5 22.5h-98v151h78q41 0 67.5 22.5t26.5 65.5
q0 39 -32.5 68t-86.5 29q-58 0 -90.5 -26.5t-32.5 -65.5h-223v30q0 98 99 164t270 66zM729 -25h-194l839 1459h197zM1612 848q155 0 256.5 -66t101.5 -182q0 -46 -15.5 -80t-37 -53t-59.5 -43v-10q75 -37 111 -80t36 -113q0 -118 -105.5 -182t-287.5 -64q-183 0 -287 64
t-104 182q0 70 36 112.5t109 80.5v10q-57 37 -85 74t-28 102q0 116 101.5 182t257.5 66zM1612 682q-125 0 -125 -92q0 -48 34.5 -70t90.5 -22q55 0 91 22t36 70q0 47 -34.5 69.5t-92.5 22.5zM1612 342q-54 0 -89.5 -26t-35.5 -74q0 -50 34 -75.5t91 -25.5t92 26t35 75
q0 47 -37 73.5t-90 26.5z" />
    <glyph glyph-name="fiveeighths" unicode="&#x215d;" horiz-adv-x="2048" 
d="M731 -25h-194l839 1459h197zM797 1200h-441l-10 -129q8 6 23.5 15t66.5 24.5t107 15.5q149 0 235 -76t86 -210q0 -123 -104 -207t-275 -84q-196 0 -301.5 78.5t-105.5 210.5h235q0 -52 38 -85.5t106 -33.5t105.5 34.5t37.5 90.5t-37 91.5t-104 35.5q-21 0 -40 -4
t-30.5 -8.5t-23 -13t-15.5 -13t-12 -14.5l-8 -9l-213 27l39 473h641v-209zM1610 848q155 0 256.5 -66t101.5 -182q0 -66 -27.5 -103t-85.5 -73v-10q75 -37 111.5 -80t36.5 -113q0 -118 -105.5 -182t-287.5 -64q-183 0 -287 64t-104 182q0 70 36 112.5t109 80.5v10
q-57 37 -85 74t-28 102q0 116 101.5 182t257.5 66zM1610 682q-125 0 -125 -92q0 -48 34.5 -70t90.5 -22q55 0 91 22t36 70q0 47 -34.5 69.5t-92.5 22.5zM1610 342q-54 0 -89.5 -26t-35.5 -74q0 -50 34 -75.5t91 -25.5t92 26t35 75q0 47 -37 73.5t-90 26.5z" />
    <glyph glyph-name="seveneighths" unicode="&#x215e;" horiz-adv-x="2048" 
d="M610 -25h-194l839 1459h197zM895 1296q-72 -82 -124.5 -151.5t-102 -154.5t-75.5 -174t-26 -179v-72h-299q0 167 78.5 329t212.5 304h-442v211h778v-113zM1530 848q155 0 256.5 -66t101.5 -182q0 -46 -15.5 -80t-37 -53t-59.5 -43v-10q75 -37 111 -80t36 -113
q0 -118 -105.5 -182t-287.5 -64q-183 0 -287 64t-104 182q0 70 36 112.5t109 80.5v10q-57 37 -85 74t-28 102q0 116 101.5 182t257.5 66zM1530 682q-125 0 -125 -92q0 -48 34.5 -70t90.5 -22q55 0 91 22t36 70q0 47 -34.5 69.5t-92.5 22.5zM1530 342q-54 0 -89.5 -26
t-35.5 -74q0 -50 34 -75.5t91 -25.5t92 26t35 75q0 47 -37 73.5t-90 26.5z" />
    <glyph glyph-name="arrowleft" unicode="&#x2190;" horiz-adv-x="2048" 
d="M547 387l88 -285h-146l-403 394v43l403 393h146l-88 -285h1417v-260h-1417z" />
    <glyph glyph-name="arrowup" unicode="&#x2191;" horiz-adv-x="1024" 
d="M381 995l-287 -88v146l395 403h43l394 -403v-146l-287 88v-1417h-258v1417z" />
    <glyph glyph-name="arrowright" unicode="&#x2192;" horiz-adv-x="2048" 
d="M86 647h1417l-88 285h146l403 -393v-43l-403 -394h-146l88 285h-1417v260z" />
    <glyph glyph-name="arrowdown" unicode="&#x2193;" horiz-adv-x="1024" 
d="M532 -422h-43l-395 404v145l287 -88v1417h258v-1417l287 88v-145z" />
    <glyph glyph-name="arrowboth" unicode="&#x2194;" horiz-adv-x="2048" 
d="M1964 539v-43l-403 -394h-146l88 285h-956l88 -285h-146l-403 394v43l403 393h146l-88 -285h956l-88 285h146z" />
    <glyph glyph-name="arrowupdn" unicode="&#x2195;" horiz-adv-x="1024" 
d="M532 -422h-43l-395 404v145l287 -88v956l-287 -88v146l395 403h43l394 -403v-146l-287 88v-956l287 88v-145z" />
    <glyph glyph-name="arrowupdnbse" unicode="&#x21a8;" horiz-adv-x="1024" 
d="M532 -252h-43l-395 404v145l287 -88v786l-287 -88v146l395 403h43l394 -403v-146l-287 88v-786l287 88v-145zM926 -451h-832v127h832v-127z" />
    <glyph glyph-name="partialdiff" unicode="&#x2202;" horiz-adv-x="1024" 
d="M436 1434q115 0 215.5 -50t174.5 -140t116.5 -225t42.5 -296q0 -220 -59.5 -388t-179 -265t-283.5 -97q-108 0 -195.5 39.5t-140.5 104t-81 143t-28 162.5q0 208 110 343.5t282 135.5q53 0 101.5 -17t82 -43.5t55 -49.5t35.5 -46l2 43q0 154 -82 266.5t-221 112.5
q-130 0 -242 -63v262q132 68 295 68zM494 668q-75 0 -122.5 -73.5t-47.5 -178.5q0 -84 38.5 -140.5t98.5 -56.5q52 0 95.5 47.5t68.5 113.5t32 136q-9 49 -55 100.5t-108 51.5z" />
    <glyph glyph-name="uni2206" unicode="&#x2206;" horiz-adv-x="1593" 
d="M53 143l479 1266h535l481 -1266v-143h-1495v143zM549 313h475l-227 760h-9z" />
    <glyph glyph-name="product" unicode="&#x220f;" horiz-adv-x="1685" 
d="M1645 1186h-240v-1469h-354v1469h-414v-1469h-354v1469h-240v299h1602v-299z" />
    <glyph glyph-name="summation" unicode="&#x2211;" horiz-adv-x="1460" 
d="M1348 1184h-732v-8l363 -525l-432 -620v-11h854v-303h-1342v174l490 709l-463 660v227h1262v-303z" />
    <glyph glyph-name="minus" unicode="&#x2212;" horiz-adv-x="1351" 
d="M1217 406h-1082v270h1082v-270z" />
    <glyph glyph-name="uni2215" unicode="&#x2215;" horiz-adv-x="225" 
d="M-154 -25h-194l840 1459h196z" />
    <glyph glyph-name="uni2219" unicode="&#x2219;" horiz-adv-x="681" 
d="M537 481h-392v375h392v-375z" />
    <glyph glyph-name="radical" unicode="&#x221a;" horiz-adv-x="1124" 
d="M795 -299h-279l-356 883l-170 -68l-58 174l435 178l237 -641q16 -44 53 -182h13q12 103 32 195l308 1484h217z" />
    <glyph glyph-name="infinity" unicode="&#x221e;" horiz-adv-x="1193" 
d="M891 1094q120 0 202.5 -86.5t82.5 -231.5q0 -154 -85 -246t-200 -92q-173 0 -297 193q-70 -96 -138.5 -144.5t-158.5 -48.5q-114 0 -196.5 90t-82.5 234q0 148 83.5 240t211.5 92q92 0 162.5 -46t132.5 -139q4 4 21.5 26t25.5 31t27.5 30t33 31t35.5 25.5t42 22.5
t45.5 13t52.5 6zM317 926q-52 0 -87 -43t-35 -119q0 -64 37 -110t90 -46q96 0 188 148l-6 12q-25 43 -40.5 65t-39 47t-49 35.5t-58.5 10.5zM874 926q-27 0 -51.5 -11t-49 -36.5t-39.5 -45t-42 -57.5l-6 -8q62 -96 105 -128t92 -32q53 0 84.5 49t31.5 105q0 72 -34.5 118
t-90.5 46z" />
    <glyph glyph-name="orthogonal" unicode="&#x221f;" horiz-adv-x="2004" 
d="M612 229h1030v-229h-1280v1280h250v-1051z" />
    <glyph glyph-name="intersection" unicode="&#x2229;" horiz-adv-x="1472" 
d="M141 909q0 500 592 500q133 0 235.5 -25t169.5 -68.5t110 -107.5t61 -137t18 -162v-909h-289v918q0 262 -305 262q-66 0 -119.5 -17t-87 -44t-56.5 -62t-32.5 -69.5t-9.5 -69.5v-916h-287v907z" />
    <glyph glyph-name="integral" unicode="&#x222b;" horiz-adv-x="555" 
d="M557 1710q-166 0 -166 -84q53 -1276 53 -1597q0 -75 -44 -129t-107.5 -77.5t-136.5 -23.5h-158v140q166 0 166 84q-53 1276 -53 1597q0 75 44 128.5t107.5 77t136.5 23.5h158v-139z" />
    <glyph glyph-name="approxequal" unicode="&#x2248;" horiz-adv-x="1351" 
d="M1272 752q-6 -7 -16.5 -18t-46.5 -39t-73.5 -50t-94.5 -39.5t-113 -17.5q-42 0 -89 11t-78.5 23t-82.5 35q-53 23 -83 35t-78.5 23.5t-92.5 11.5q-56 0 -112.5 -17t-96 -41t-71.5 -48t-48 -41l-16 -17v266q6 7 16.5 18t46.5 39t73.5 50t94.5 39.5t113 17.5q42 0 89 -11
t78.5 -23t82.5 -35q52 -23 83.5 -35t79.5 -23.5t91 -11.5q56 0 112.5 17t96 41t71.5 48t48 41l16 17v-266zM1272 272q-6 -7 -16.5 -18t-46.5 -39t-73.5 -49.5t-94.5 -39t-113 -17.5q-42 0 -89 11t-78.5 23t-82.5 35q-53 23 -83 35t-78.5 23.5t-92.5 11.5q-56 0 -112.5 -17
t-96 -41t-71.5 -48t-48 -41l-16 -17v266q6 7 16.5 18t46.5 39t73.5 50t94.5 39.5t113 17.5q42 0 89.5 -11.5t77.5 -23.5t83 -35q50 -22 82.5 -34.5t80.5 -23.5t91 -11q56 0 112.5 17t96 41t71.5 48t48 41l16 17v-267z" />
    <glyph glyph-name="notequal" unicode="&#x2260;" horiz-adv-x="1351" 
d="M1028 907h189v-270h-363l-125 -193h488v-270h-662l-113 -174h-231l113 174h-189v270h363l125 193h-488v270h662l112 174h232z" />
    <glyph glyph-name="equivalence" unicode="&#x2261;" horiz-adv-x="1228" 
d="M1100 807h-973v229h973v-229zM1100 426h-973v229h973v-229zM1100 45h-973v229h973v-229z" />
    <glyph glyph-name="lessequal" unicode="&#x2264;" horiz-adv-x="1351" 
d="M1217 1090l-762 -234l762 -231v-291l-1082 377v293l1082 378v-292zM1217 0h-1082v270h1082v-270z" />
    <glyph glyph-name="greaterequal" unicode="&#x2265;" horiz-adv-x="1351" 
d="M1217 1004v-293l-1082 -377v291l762 231l-762 234v292zM1217 0h-1082v270h1082v-270z" />
    <glyph glyph-name="house" unicode="&#x2302;" horiz-adv-x="1228" 
d="M1075 635v-635h-921v635l460 518zM352 582v-420h522v420l-260 290z" />
    <glyph glyph-name="revlogicalnot" unicode="&#x2310;" horiz-adv-x="1351" 
d="M1249 686h-819v-371h-315v689h1134v-318z" />
    <glyph glyph-name="integraltp" unicode="&#x2320;" horiz-adv-x="1228" 
d="M891 1585q-166 0 -166 -84q13 -1007 29 -2013h-285q-25 1929 -25 2007q0 75 44 128.5t108 77t137 23.5h158v-139z" />
    <glyph glyph-name="integralbt" unicode="&#x2321;" horiz-adv-x="1228" 
d="M760 1737q24 -1852 24 -2007q0 -75 -44 -129t-107.5 -77.5t-136.5 -23.5h-158v140q166 0 166 84q-13 1007 -29 2013h285z" />
    <glyph glyph-name="lozenge" unicode="&#x25ca;" horiz-adv-x="1593" 
d="M1335 707l-268 -703h-535l-266 703l266 702h535zM969 707l-172 448h-9l-178 -448l178 -449h9z" />
    <glyph glyph-name="fi" unicode="&#xfb01;" 
d="M551 1509q41 0 100.5 -10.5t96.5 -25.5v-240h-74q-65 0 -88 -24.5t-23 -84.5v-43h185v-276h-185v-805h-407v805h-140v276h140v45q0 108 28.5 184t82.5 118.5t123 61.5t161 19zM1241 1208h-407v277h407v-277zM1241 0h-407v1081h407v-1081z" />
    <glyph glyph-name="fl" unicode="&#xfb02;" 
d="M551 1509q41 0 100.5 -10.5t96.5 -25.5v-240h-74q-65 0 -88 -24.5t-23 -84.5v-43h185v-276h-185v-805h-407v805h-140v276h140v45q0 108 28.5 184t82.5 118.5t123 61.5t161 19zM1243 0h-407v1485h407v-1485z" />
    <glyph glyph-name="NULL" horiz-adv-x="0" 
 />
    </font>
</defs>
</svg>
